<?xml version="1.0" encoding="UTF-8"?>
<svg id="Lag_3" data-name="Lag 3" xmlns="http://www.w3.org/2000/svg" viewBox="0 0 54.15 50.38">
  <defs>
    <style>
      .cls-1 {
        fill: #e3a7c4;
      }

      .cls-2 {
        stroke-width: 2px;
      }

      .cls-2, .cls-3 {
        fill: none;
        stroke: #e3a7c4;
        stroke-miterlimit: 10;
      }
    </style>
  </defs>
  <path class="cls-3" d="m18.41,42.17c0-.26,2.11.1,3.22-1.06,1.04-1.08.74-3,.88-2.99.13,0-.28,1.82.65,2.94,1.02,1.23,3.12,1,3.11,1.3,0,.29-1.91,0-2.95,1.12-.99,1.05-.7,2.81-.89,2.81-.19,0,.12-1.81-.88-2.91-1.08-1.2-3.15-.96-3.14-1.21Z"/>
  <path class="cls-3" d="m35.6,11.26c0-.34,2.84.13,4.34-1.43,1.4-1.46,1-4.04,1.18-4.03.18,0-.37,2.45.88,3.96,1.37,1.66,4.2,1.34,4.19,1.75,0,.39-2.57.01-3.97,1.51-1.33,1.42-.94,3.79-1.19,3.79-.26,0,.16-2.43-1.18-3.92-1.46-1.62-4.24-1.29-4.23-1.63Z"/>
  <circle class="cls-2" cx="15.11" cy="11.3" r="3.58"/>
  <circle class="cls-2" cx="12.18" cy="29.88" r="5"/>
  <circle class="cls-2" cx="39.9" cy="35.92" r="7.05"/>
  <path class="cls-1" d="m29.28,32.47c-.2-.02.39.08.12.02-.11-.02-.22-.04-.33-.06-.33-.07-.66-.15-.99-.25-.93-.28-1.81-.7-2.61-1.25-2.25-1.55-3.39-4.28-3.11-6.98s2.1-5.31,4.74-6.23c2.49-.88,5.29-.48,7.48.98s3.25,4.19,3.15,6.83c-.06,1.61,2.44,1.61,2.5,0,.11-3.04-.98-6.2-3.34-8.2-2.59-2.19-6.15-3.05-9.45-2.31-7.52,1.68-10.15,11.69-4.61,16.97,1.73,1.65,4.06,2.71,6.44,2.98.68.08,1.24-.63,1.25-1.25,0-.74-.58-1.17-1.25-1.25h0Z"/>
  <path class="cls-1" d="m25.17,24.84c0-.12,0-.23,0-.35,0-.1,0-.19.02-.29,0-.06.01-.12.02-.18.01-.1-.01.06.01-.09.11-.62.29-1.19.62-1.73.39-.65.95-1.18,1.61-1.54.28-.16.55-.27.85-.36.14-.04.29-.08.44-.11.06-.01.13-.03.19-.04.04,0,.25-.04.14-.02.37-.04.75-.06,1.13-.02.34.04.62-.31.62-.62,0-.37-.29-.59-.62-.62-1.07-.11-2.2.13-3.17.61-1.52.74-2.62,2.22-2.97,3.86-.1.49-.16,1.01-.14,1.51.02.34.27.62.62.62.32,0,.64-.29.62-.62h0Z"/>
  <path class="cls-1" d="m36.4,35.7c0-.09,0-.18,0-.27,0-.07,0-.14.01-.21,0-.04,0-.07,0-.11,0-.02.01-.07,0-.08,0,.02-.02.14,0,.04.03-.21.08-.43.14-.63.03-.11.07-.22.12-.33-.04.1.02-.03.03-.06.03-.07.07-.14.11-.21.06-.11.13-.21.2-.32.02-.04.05-.07.08-.1,0,.01-.04.05,0,0,.05-.06.1-.12.16-.18.1-.1.2-.2.31-.29.06-.05,0,0,0,0,.03-.02.06-.05.1-.07.06-.04.11-.08.17-.11.1-.06.21-.12.32-.17s-.07.02.04-.02c.06-.02.12-.05.19-.07.1-.03.19-.06.29-.08.04,0,.09-.02.13-.03.03,0,.21-.03.1-.02s.04,0,.07,0c.05,0,.09,0,.14-.01.08,0,.15,0,.23,0,.09,0,.18,0,.27.02.33.04.64-.31.62-.62-.02-.37-.28-.59-.62-.62-.77-.09-1.59.11-2.26.48-1.11.59-1.87,1.74-2.1,2.96-.07.37-.11.76-.1,1.13.02.33.28.64.62.62.33-.01.64-.28.62-.62h0Z"/>
</svg>