<?xml version="1.0" encoding="UTF-8"?>
<svg id="Lag_3" data-name="Lag 3" xmlns="http://www.w3.org/2000/svg" viewBox="0 0 54.15 50.38">
  <defs>
    <style>
      .cls-1 {
        stroke-width: 3px;
      }

      .cls-1, .cls-2 {
        fill: none;
        stroke: #e3a7c4;
        stroke-miterlimit: 10;
      }

      .cls-3 {
        fill: #e3a7c4;
      }

      .cls-2 {
        stroke-width: .75px;
      }
    </style>
  </defs>
  <circle class="cls-1" cx="27.12" cy="23.94" r="12.83"/>
  <path class="cls-3" d="m19.91,25.48c1.32,1.37,2.63,2.74,3.95,4.11.71.74,1.93.69,2.65,0,2.56-2.48,5.12-4.95,7.69-7.43.71-.68.74-1.97,0-2.65s-1.9-.73-2.65,0c-2.56,2.48-5.12,4.95-7.69,7.43h2.65c-1.32-1.37-2.63-2.74-3.95-4.11-.68-.71-1.98-.74-2.65,0s-.73,1.9,0,2.65h0Z"/>
  <path class="cls-2" d="m7.18,15.02c.74-1.52,3.77-.37,5.13-2.2,1.25-1.68-.35-3.91.81-4.89,1.2-1.01,3.21,1.1,5.3.16,2.12-.96,1.72-3.91,3.42-4.3,1.69-.39,2.62,2.4,4.97,2.35,2.24-.06,2.92-2.63,4.64-2.35,1.74.28,1.51,2.98,3.75,3.98,2.25,1,4.2-.95,5.46.16,1.15,1.02-.24,2.89.98,4.56,1.34,1.85,4.02.92,4.73,2.44.7,1.52-1.71,2.95-1.14,5.05.52,1.94,2.87,1.91,3.1,3.59.23,1.69-2.09,2.17-2.53,4.64-.43,2.41,1.49,3.53.73,5.05-.81,1.64-3.24.74-4.64,2.61-1.39,1.85.04,3.99-1.22,4.97-1.36,1.06-3.43-1.12-5.46-.08-1.86.96-1.35,3.42-2.93,3.91-1.67.53-2.69-2.09-5.22-2.04-2.45.05-3.32,2.57-4.97,2.12-1.63-.44-1.19-3.01-3.18-3.99-2.05-1.02-4,.98-5.3-.08-1.26-1.04.21-3.25-1.14-4.81-1.42-1.63-4.06-.39-4.89-1.79-.81-1.38,1.53-2.96.98-5.3-.57-2.4-3.5-2.69-3.45-4.4.05-1.69,2.93-1.87,3.45-4.07.53-2.26-2.11-3.82-1.39-5.3Z"/>
  <path class="cls-3" d="m9.75,18.7c3.22,0,3.22-5,0-5s-3.22,5,0,5h0Z"/>
  <path class="cls-3" d="m14.96,12.65c3.22,0,3.22-5,0-5s-3.22,5,0,5h0Z"/>
  <path class="cls-3" d="m22.46,8.94c3.22,0,3.22-5,0-5s-3.22,5,0,5h0Z"/>
  <path class="cls-3" d="m30.86,8.99c3.22,0,3.22-5,0-5s-3.22,5,0,5h0Z"/>
  <path class="cls-3" d="m38.79,12.55c3.22,0,3.22-5,0-5s-3.22,5,0,5h0Z"/>
  <path class="cls-3" d="m43.72,18.46c3.22,0,3.22-5,0-5s-3.22,5,0,5h0Z"/>
  <path class="cls-3" d="m43.86,18.56c3.22,0,3.22-5,0-5s-3.22,5,0,5h0Z"/>
  <path class="cls-3" d="m45.45,26.39c3.22,0,3.22-5,0-5s-3.22,5,0,5h0Z"/>
  <path class="cls-3" d="m45.59,26.44c3.22,0,3.22-5,0-5s-3.22,5,0,5h0Z"/>
  <path class="cls-3" d="m44.14,34.7c3.22,0,3.22-5,0-5s-3.22,5,0,5h0Z"/>
  <path class="cls-3" d="m38.93,41.22c3.22,0,3.22-5,0-5s-3.22,5,0,5h0Z"/>
  <path class="cls-3" d="m31.52,44.45c3.22,0,3.22-5,0-5s-3.22,5,0,5h0Z"/>
  <path class="cls-3" d="m31.52,44.45c3.22,0,3.22-5,0-5s-3.22,5,0,5h0Z"/>
  <path class="cls-3" d="m22.93,44.5c3.22,0,3.22-5,0-5s-3.22,5,0,5h0Z"/>
  <path class="cls-3" d="m22.75,44.6c3.22,0,3.22-5,0-5s-3.22,5,0,5h0Z"/>
  <path class="cls-3" d="m15.38,40.98c3.22,0,3.22-5,0-5s-3.22,5,0,5h0Z"/>
  <path class="cls-3" d="m10.31,33.82c1.61,0,1.61-2.5,0-2.5s-1.61,2.5,0,2.5h0Z"/>
  <path class="cls-3" d="m8.94,34.53c1.61,0,1.61-2.5,0-2.5s-1.61,2.5,0,2.5h0Z"/>
  <path class="cls-3" d="m10.18,33.28c0-.08,0-.17,0-.25l-.04.33c.02-.12.05-.23.1-.34l-.13.3c.1-.23.24-.44.39-.63l-.2.25c.04-.06.09-.11.13-.16.12-.11.21-.25.26-.4.08-.15.11-.31.11-.48,0-.17-.03-.33-.11-.48-.05-.15-.14-.29-.26-.4-.24-.22-.55-.38-.88-.37l-.33.04c-.21.06-.4.17-.55.32-.23.29-.48.58-.65.92-.08.15-.14.3-.2.45-.02.06-.05.13-.06.19-.04.16-.06.33-.07.5,0,.07,0,.14,0,.21,0,.17.03.33.11.48.05.15.14.29.26.4.11.12.25.21.4.26.15.08.31.11.48.11.32-.01.66-.12.88-.37.21-.23.39-.56.37-.88h0Z"/>
  <path class="cls-3" d="m9.88,32.29h.03c-.11.01-.22.03-.33.04.19-.02.37-.04.56-.02l-.33-.04c.08.01.15.03.23.06l-.3-.13c.05.02.1.05.14.08l-.25-.2s.07.06.1.1l-.2-.25c.04.06.08.12.11.18l-.13-.3c.05.14.08.28.1.42l-.04-.33c.03.22.05.43.08.65s.08.44.07.65l.04-.33v.04c.03-.1.08-.2.12-.3,0,.02-.02.04-.03.06l.2-.25-.02.02.25-.2s-.03.02-.05.03l.3-.13c-.13.05-.27.07-.4.08l.33-.04c-.16.02-.33.03-.49.02-.31,0-.66.15-.88.37s-.38.57-.37.88.12.66.37.88.54.36.88.37c.32,0,.64-.03.96-.09.47-.08.88-.33,1.13-.75.15-.27.2-.58.16-.88-.01-.11-.03-.22-.04-.32-.03-.23-.06-.46-.09-.69-.04-.27-.05-.56-.15-.82-.06-.17-.13-.33-.23-.48-.18-.25-.33-.42-.6-.58-.31-.2-.68-.27-1.05-.29-.27-.02-.56.04-.83.08-.29.04-.61.34-.75.57-.16.27-.22.66-.13.96s.29.59.57.75l.3.13c.22.06.44.06.66,0h0Z"/>
  <path class="cls-3" d="m6.31,25.5c1.22.06,2.34-.59,3.02-1.57.17-.24.22-.69.13-.96s-.23-.48-.45-.65c-.51-.4-1.16-.31-1.64.1-.03.03-.07.06-.1.08l.25-.2c-.15.12-.32.22-.5.3l.3-.13c-.34.14-.68.25-.98.48s-.54.51-.68.86c-.17.39-.22.84-.07,1.25s.39.69.7.96c.84.73,1.69,1.45,2.63,2.03.56.35,1.4.14,1.71-.45.32-.61.14-1.34-.45-1.71-.35-.22-.68-.45-1.01-.7l.25.2c-.3-.23-.59-.47-.87-.71-.27-.23-.58-.45-.81-.73l.2.25s-.04-.07-.06-.1l.13.3s-.03-.09-.04-.14l.04.33c0-.05,0-.1,0-.15l-.04.33c.01-.05.03-.1.04-.14l-.13.3c.03-.06.07-.12.11-.18l-.2.25c.06-.07.12-.13.19-.19l-.25.2c.08-.06.16-.1.25-.14l-.3.13c.26-.1.53-.2.77-.33s.47-.31.67-.49l-1.96-1.51s-.04.06-.06.09l.2-.25c-.11.15-.24.27-.39.39l.25-.2c-.16.12-.33.22-.52.3l.3-.13c-.19.08-.38.13-.58.15l.33-.04c-.13.01-.26.02-.38.01-.65-.03-1.28.6-1.25,1.25.03.71.55,1.21,1.25,1.25h0Z"/>
  <path class="cls-3" d="m10.6,24.83l.79-.92c.66-.77.75-1.9,0-2.65s-1.93-.72-2.65,0c-.08.08-.29.21-.19.18l2.12,2.75c.1-.19.09-.2-.03-.02-.17.11-.17.11.01-.01.19-.13.39-.24.58-.37.52-.37.95-.78,1.25-1.35.62-1.2.37-2.58-.1-3.78-.34-.87-1.07-1.49-2.06-1.34s-1.54.89-1.63,1.84c-.16,1.75-.33,3.5-.47,5.25-.06.87,0,1.72.22,2.56.1.37.21.75.31,1.12,0,0,.07.34.05.17,0,.06-.03.5,0,.38l3.68.5c-.05-.42-.11-.84-.16-1.26l-3.49.95c1.09,1.6,2.05,3.27,2.89,5.01.44.91,1.74,1.16,2.57.67.93-.54,1.12-1.65.67-2.57-.84-1.74-1.81-3.41-2.89-5.01-.47-.69-1.28-1.09-2.12-.86-.72.2-1.48,1.01-1.38,1.81.05.42.11.84.16,1.26.12.93.62,1.72,1.63,1.84.88.1,1.85-.42,2.06-1.34s.14-1.84-.11-2.76c-.22-.81-.4-1.38-.36-2.2.1-1.83.32-3.67.48-5.5l-3.68.5c.15.37.33.78.37,1.19-.02-.13-.03-.13-.02,0,0,.14,0,.13,0-.02.02-.02.13-.34.23-.27-.05-.04-.77.51-.85.57-.44.32-.82.68-1.06,1.18-.32.69-.36,1.45.15,2.08.43.54,1.27.94,1.97.67s1.3-.6,1.85-1.14l-2.65-2.65-.79.92c-.66.77-.75,1.9,0,2.65.68.68,1.99.77,2.65,0h0Z"/>
  <path class="cls-3" d="m12.11,35.07s.08-.01.12-.02l-.5.07c.16-.02.31-.01.47,0l-.5-.07c.2.03.39.08.57.16l-.45-.19c.19.08.36.18.52.3l-.38-.29c.21.16.39.35.56.56l-.29-.38c.22.3.4.62.55.96l-.19-.45c.2.47.33.97.58,1.42.19.33.43.59.72.82.44.34.91.49,1.47.53.46.03,1.01-.23,1.33-.55s.57-.86.55-1.33-.18-.99-.55-1.33-.81-.52-1.33-.55h-.05c.17.02.33.04.5.06-.05,0-.09-.02-.13-.03l.45.19c-.06-.02-.1-.05-.15-.09l.38.29s-.09-.08-.13-.13l.29.38c-.09-.12-.16-.25-.22-.39l.19.45c-.21-.49-.37-.99-.6-1.47s-.59-.97-.97-1.36c-.5-.5-1.07-.83-1.73-1.08s-1.39-.23-2.08-.11c-.44.08-.9.49-1.12.86-.24.4-.33.99-.19,1.44s.43.89.86,1.12l.45.19c.33.09.66.09,1,0h0Z"/>
  <path class="cls-3" d="m17.62,40.35c.33-.03.66-.03,1,.01l-.5-.07c.41.06.81.17,1.2.33l-.45-.19c.36.16.7.36,1.02.6l-.38-.29c.28.22.53.47.75.75l-.29-.38c.08.1.15.2.22.31.27.41.64.73,1.12.86.45.12,1.05.07,1.44-.19s.75-.64.86-1.12.09-1.02-.19-1.44c-.62-.94-1.47-1.76-2.49-2.25s-2.17-.79-3.31-.68c-.51.05-.95.18-1.33.55-.33.33-.57.86-.55,1.33s.18.99.55,1.33c.35.32.84.6,1.33.55h0Z"/>
  <path class="cls-3" d="m25.72,42.88c.06,0,.11-.02.17-.02l-.5.07c.73-.1,1.47-.09,2.2,0l-.5-.07c.7.1,1.39.28,2.04.55l-.45-.19c.13.06.26.11.39.17.46.22.93.33,1.44.19.43-.12.91-.46,1.12-.86.23-.44.35-.96.19-1.44-.14-.44-.43-.91-.86-1.12-.91-.43-1.84-.77-2.84-.91-.56-.08-1.12-.15-1.68-.15s-1.15.08-1.72.16c-.43.07-.91.5-1.12.86-.24.4-.33.99-.19,1.44s.43.89.86,1.12l.45.19c.33.09.66.09,1,0h0Z"/>
  <path class="cls-3" d="m34.04,41.55c.32-.24.63-.47.95-.71.28-.21.55-.42.87-.56l-.45.19c.12-.05.25-.09.38-.11l-.5.07c.13-.02.25-.02.38,0l-.5-.07c.09.02.17.04.26.07l-.45-.19c.16.08.29.2.45.29.28.15.53.22.83.26.28.04.52.03.79-.03.19-.04.36-.14.54-.22.28-.17.51-.39.67-.67.17-.29.25-.61.26-.95,0-.09,0-.17,0-.26.02-.47-.22-1-.55-1.33s-.86-.57-1.33-.55c-1.04.05-1.84.82-1.88,1.88,0,.09,0,.17,0,.26l.93-1.62-.04.02.45-.19h-.04c.17-.01.33-.04.5-.06h-.04c.17.02.33.05.5.07-.03,0-.06,0-.09-.02l.45.19c-.14-.06-.25-.16-.37-.24-.18-.11-.39-.19-.59-.26-.08-.03-.15-.05-.23-.06-.42-.08-.72-.09-1.13-.03s-.68.15-1.08.33c-.31.14-.58.33-.85.53-.33.24-.65.49-.98.73-.22.12-.39.28-.53.48-.17.18-.28.39-.34.64-.12.45-.07,1.05.19,1.44s.64.75,1.12.86,1.05.11,1.44-.19h0Z"/>
  <path class="cls-3" d="m41.18,35.52s-.04-.07-.06-.11l.19.45s-.02-.07-.03-.11l.07.5c0-.07,0-.13,0-.2l-.07.5c.01-.08.04-.16.07-.24l-.19.45c.04-.09.09-.17.15-.26l-.29.38c.08-.11.18-.21.27-.31.19-.21.37-.43.53-.66.23-.32.32-.72.47-1.08l-.19.45c.03-.08.07-.15.12-.21l-.29.38s.06-.07.1-.09l-.38.29s.06-.04.09-.05l-.45.19c.05-.02.1-.03.15-.04l-.5.07c.2-.03.4,0,.6,0,.42-.03.76-.1,1.13-.3.02-.01.04-.02.06-.03.11-.07.31-.22.4-.31.07-.07.12-.15.18-.23s.13-.15.18-.24c.24-.43.32-.97.19-1.44-.12-.43-.46-.91-.86-1.12-.44-.23-.96-.35-1.44-.19s-.88.43-1.12.86c0,.02-.02.04-.03.05l.29-.38s-.04.04-.06.06l.38-.29s-.05.03-.07.04l.45-.19s-.09.03-.14.03l.5-.07c-.16.02-.31,0-.47,0-.22,0-.45.04-.67.08s-.45.14-.63.25c-.37.22-.73.56-.92.95-.14.29-.24.59-.36.89l.19-.45c-.05.12-.11.22-.19.32l.29-.38c-.29.36-.66.68-.87,1.1s-.33.81-.36,1.31c0,.03,0,.07,0,.1,0,.18.04.4.08.58.05.22.15.44.27.63.26.41.65.73,1.12.86.25.08.5.09.75.03.25-.01.48-.09.7-.22.4-.26.75-.64.86-1.12s.08-1.02-.19-1.44h0Z"/>
  <path class="cls-3" d="m45.51,28.83l-.04-.05.29.38c-.12-.16-.22-.33-.31-.52l.19.45c-.09-.21-.14-.42-.18-.64l.07.5c-.03-.24-.03-.48,0-.73l-.07.5c.03-.22.09-.43.18-.64l-.19.45c.08-.19.19-.36.32-.53l-.29.38c.18-.24.38-.46.56-.7.29-.38.44-.69.63-1.14.17-.42.03-1.07-.19-1.44s-.67-.76-1.12-.86c-.48-.11-1.02-.09-1.44.19l-.38.29c-.23.23-.39.51-.48.83l-.02.06.19-.45c-.07.16-.17.3-.27.44l.29-.38c-.31.4-.68.78-.93,1.23-.33.61-.47,1.19-.53,1.87-.02.17-.02.34,0,.52.03.32.07.66.16.97.19.65.51,1.16.93,1.68.28.35.9.55,1.33.55.46,0,1.01-.2,1.33-.55s.57-.83.55-1.33l-.07-.5c-.09-.32-.25-.59-.48-.83h0Z"/>
  <path class="cls-3" d="m46.1,21.88c-.37-1.18-.64-2.39-.8-3.62l.07.5c0-.07-.02-.14-.03-.22,0-.26-.04-.5-.16-.72-.08-.23-.2-.43-.39-.6-.33-.33-.86-.57-1.33-.55s-.99.18-1.33.55c-.31.34-.61.84-.55,1.33.18,1.47.45,2.91.9,4.33.14.46.44.87.86,1.12s.99.33,1.44.19.89-.43,1.12-.86.34-.96.19-1.44h0Z"/>
  <path class="cls-3" d="m42.42,13.76c-.18-.16-.35-.33-.49-.52l.29.38c-.18-.24-.33-.49-.44-.76l.19.45c-.11-.26-.16-.53-.24-.81-.19-.68-.58-1.28-1.2-1.64l-.45-.19c-.25-.08-.5-.09-.75-.03-.17,0-.33.04-.47.13-.23.08-.43.2-.6.39-.22.24-.38.52-.48.83-.15.48-.03,1.02.19,1.44.13.25.27.48.43.71.25.34.5.68.8.98.24.25.5.46.78.67s.57.43.88.6c.43.24.97.32,1.44.19.24-.06.46-.17.64-.34.2-.13.37-.31.48-.53.23-.44.35-.96.19-1.44s-.43-.88-.86-1.12c-.24-.13-.47-.29-.69-.46l.38.29c-.36-.28-.68-.6-.97-.97l.29.38c-.21-.27-.4-.57-.55-.87l-2.57,2.57s.04.02.06.04l-.38-.29s.07.06.1.1l-.29-.38c.04.06.08.12.11.18l-.19-.45c.08.19.11.4.17.6.1.37.26.73.43,1.08s.41.63.64.93c.15.19.31.36.49.52.17.18.37.31.6.39.22.12.46.17.72.16.26,0,.5-.04.72-.16.23-.08.43-.2.6-.39.33-.36.57-.83.55-1.33s-.17-1.01-.55-1.33h0Z"/>
  <path class="cls-3" d="m36.56,8.09c-.41.02-.82.04-1.23-.01l.5.07c-.25-.03-.49-.09-.72-.19l.45.19c-.21-.09-.4-.21-.59-.35l.38.29c-.32-.25-.6-.54-.89-.82-.39-.38-.8-.74-1.26-1.03-.4-.26-1-.31-1.44-.19s-.91.46-1.12.86c-.49.93-.21,1.99.67,2.57.09.06.17.12.26.18l-.38-.29c.3.24.57.51.84.78.37.37.76.7,1.19,1,.98.67,2.19.76,3.34.7.5-.03.97-.19,1.33-.55.33-.33.57-.86.55-1.33s-.18-.99-.55-1.33-.83-.57-1.33-.55h0Z"/>
  <path class="cls-3" d="m29.06,5.98l-1.74.13c-.55.04-1.14.14-1.7.07l.5.07c-.13-.02-.26-.06-.39-.11l.45.19c-.49-.21-.94-.49-1.45-.66-.44-.15-1.05-.04-1.44.19s-.76.67-.86,1.12c-.24,1.04.31,1.97,1.31,2.31.05.02.1.03.15.05l-.45-.19c.47.2.89.47,1.37.64.52.18,1.08.18,1.61.14.88-.07,1.75-.13,2.63-.2.5-.04.96-.18,1.33-.55.33-.33.57-.86.55-1.33s-.18-.99-.55-1.33-.83-.59-1.33-.55h0Z"/>
  <path class="cls-3" d="m20.87,6.46c-.39.12-.77.29-1.1.53s-.65.51-.97.76l.38-.29c-.19.15-.39.28-.61.38l.45-.19c-.37.15-.77.19-1.16.25-.52.08-1.05.24-1.49.53-.41.26-.73.65-.86,1.12-.12.45-.07,1.05.19,1.44s.64.75,1.12.86,1.02.09,1.44-.19c.09-.06.18-.11.28-.15l-.45.19c.55-.22,1.16-.2,1.72-.36.39-.12.79-.29,1.13-.53s.66-.52.99-.78l-.38.29c.19-.14.38-.28.6-.37l-.45.19c.06-.02.11-.04.17-.06.46-.14.88-.44,1.12-.86s.33-.99.19-1.44-.43-.89-.86-1.12-.96-.34-1.44-.19h0Z"/>
  <path class="cls-3" d="m12.84,12.05c.02-.16.07-.39,0-.1-.02.08-.04.15-.06.22-.01.05-.11.23-.09.27-.02-.05.19-.37.05-.13-.09.15-.18.3-.26.45-.11.19.27-.3.05-.06-.05.06-.1.12-.16.17-.07.07-.15.13-.21.2-.15.17.3-.2.11-.08-.15.1-.3.19-.46.28-.62.35-1.06.84-1.33,1.49-.41.98-.27,2.05-.08,3.06.03.18.07.36.11.55.01.08.03.16.04.24.07.4-.01-.31-.01-.08,0,.1-.04.46,0,.52-.04-.05.1-.43.01-.16-.04.13-.19.43.03-.01-.43.88-.27,2.07.67,2.57.84.45,2.11.27,2.57-.67.53-1.08.53-2.11.33-3.27-.04-.2-.08-.4-.12-.61-.02-.1-.04-.2-.06-.3-.03-.18.04-.32,0,.07.02-.17-.03-.36-.02-.54.01-.31.02-.07-.02.09.07-.32-.18.26-.06.08.08-.12-.18.19-.21.23-.12.09-.11.09.03,0l.12-.06c.17-.1.33-.2.48-.32.46-.35.82-.69,1.17-1.14.68-.88.99-1.85,1.13-2.94.06-.44-.25-1.03-.55-1.33-.33-.33-.86-.57-1.33-.55s-.99.18-1.33.55c-.36.39-.48.8-.55,1.33h0Z"/>
  <path class="cls-3" d="m10.21,19.73c.27,3.35-.53,6.75.74,9.98,1.13,2.88,2.55,5.99,4.88,8.09,1.79,1.61,4.45-1.03,2.65-2.65-1.9-1.71-3.16-4.34-4.02-6.71-1.02-2.79-.27-5.81-.5-8.71-.08-1.01-.8-1.88-1.88-1.88-.95,0-1.96.86-1.88,1.88h0Z"/>
  <path class="cls-3" d="m17.24,38.22c1.76-.13,3.41-.25,4.91.81.69.49,1.32,1.01,2.09,1.36,1.04.47,2.16.57,3.29.6,1.93.05,4.15.37,6.03-.12s2.68-2.3,4.55-2.7c2.1-.44,1.58-3.67-.5-3.68s-4.15.54-5.96,1.64c-2.06,1.26-.17,4.5,1.89,3.24,1.26-.77,2.58-1.14,4.06-1.13l-.5-3.68c-.91.19-1.8.56-2.57,1.09-.61.42-1.16,1.29-1.83,1.57-.72.3-1.81.09-2.56.07-1-.02-1.99-.02-2.99-.06-.83-.03-1.42-.22-2.11-.69s-1.33-1.04-2.11-1.4c-1.8-.83-3.76-.82-5.7-.68-1.01.07-1.88.81-1.88,1.88,0,.96.86,1.95,1.88,1.88h0Z"/>
  <path class="cls-3" d="m38.01,36.46c1.92-1.25,3.32-3.17,4.56-5.07.73-1.12,1.13-2.32,1.26-3.65.12-1.21.05-2.45.05-3.66,0-.98-.86-1.92-1.88-1.88s-1.88.82-1.88,1.88.04,2.18-.02,3.27c0,.13-.02.26-.03.4.03-.17.02-.14-.02.09-.06.25-.12.5-.2.75.11-.31-.16.31-.19.38-.1.19-.22.37-.33.55-.25.38-.51.75-.78,1.12-.14.19-.27.38-.41.57-.07.09-.14.19-.21.28.11-.15.1-.14-.03.04-.3.36-.6.71-.94,1.04-.17.16-.34.32-.52.46.28-.23-.26.18-.32.22-.82.53-1.24,1.69-.67,2.57.53.82,1.69,1.24,2.57.67h0Z"/>
  <path class="cls-3" d="m43.99,23.97c.11-2.97-.48-5.9-1.65-8.62s-2.82-5.27-5.6-6.35c-.94-.37-2.06.4-2.31,1.31-.29,1.06.36,1.94,1.31,2.31-.13-.06-.09-.04.11.06.12.06.24.13.35.21.19.12.17.12.41.35.41.39.64.69.89,1.06.61.9,1.22,2.01,1.58,2.91.9,2.25,1.25,4.38,1.16,6.76-.04,1.01.89,1.88,1.88,1.88,1.05,0,1.84-.86,1.88-1.88h0Z"/>
  <path class="cls-3" d="m36.75,9.02c-5.44-.74-10.95-3.72-16.32-1.05-2.17,1.07-4.58,2.66-6.15,4.52-.86,1.01-1.43,2.1-1.89,3.34s-.73,2.43-1.43,3.52c-1.31,2.04,1.94,3.92,3.24,1.89,1.17-1.82,1.31-4.14,2.57-5.88s3.38-2.97,5.18-3.95c4.21-2.29,9.5.64,13.81,1.23,1,.14,2.01-.24,2.31-1.31.24-.87-.3-2.17-1.31-2.31h0Z"/>
</svg>