<?xml version="1.0" encoding="UTF-8"?>
<svg id="Lag_3" data-name="Lag 3" xmlns="http://www.w3.org/2000/svg" viewBox="0 0 54.15 50.38">
  <defs>
    <style>
      .cls-1 {
        stroke-width: 3px;
      }

      .cls-1, .cls-2 {
        fill: none;
        stroke: #e3a7c4;
        stroke-miterlimit: 10;
      }

      .cls-3 {
        fill: #e3a7c4;
      }
    </style>
  </defs>
  <rect class="cls-1" x="8.95" y="9.38" width="36.4" height="35.04" rx="6.91" ry="6.91"/>
  <path class="cls-1" d="m8.95,16.29c11.8-.05,23.6-.09,35.4-.14"/>
  <path class="cls-3" d="m12.6,16.05c3.98-.25,7.96-.29,11.94-.11,2.76.12,3.48-4.49.66-4.91-1.79-.27-3.58-.53-5.37-.8s-3.51-.63-5.27-.6c-2.31.04-3.63,3.57-1.26,4.66,3.65,1.68,7.57,2.15,11.56,2.07s8.19-.61,12.28-.14c2.5.29,3.35-3.56,1.26-4.66-2.65-1.39-5.81-1.68-8.72-2.24-2.38-.46-8.91-1.86-8.19,2.66.34,2.16,2.44,2.38,4.21,2.59,1.65.2,3.3.4,4.95.6,3.12.38,6.46.48,9.48,1.43s4.39-3.86,1.33-4.82c-2.67-.84-5.57-.97-8.33-1.3-1.4-.17-2.8-.34-4.21-.51-1.32-.16-2.82-.15-4.09-.55l1.1.64-.22-.18.73,1.77v-.23c-.41.72-.82,1.44-1.23,2.16-.63.16-.63.21,0,.15.32,0,.64.02.96.05.42.04.83.12,1.24.2,1,.18,1.99.38,2.98.58,1.78.34,3.85.48,5.47,1.34l1.26-4.66c-3.8-.44-7.6-.03-11.4.11-3.32.12-6.84.06-9.91-1.36l-1.26,4.66c3.07-.06,6.28.77,9.31,1.22l.66-4.91c-3.98-.18-7.96-.14-11.94.11-1.35.09-2.5,1.09-2.5,2.5,0,1.29,1.15,2.59,2.5,2.5h0Z"/>
  <path class="cls-3" d="m44.23,14.46c-.07-.78-.27-1.44-.75-2.07-.38-.49-.77-.8-1.28-1.18-.71-.52-1.51-.99-2.39-1.14-.92-.16-1.84-.15-2.77-.13-1,.02-1.99.11-2.98.27-.58.09-1.21.66-1.49,1.15-.31.54-.45,1.33-.25,1.93s.57,1.19,1.15,1.49c.63.33,1.23.37,1.93.25.13-.02.27-.04.41-.06l-.66.09c.66-.08,1.31-.11,1.98-.13s1.28-.04,1.91.03l-.66-.09c.25.03.49.09.72.18l-.6-.25c.48.21.9.51,1.32.82l-.51-.39c.17.13.32.27.45.44l-.39-.51c.06.09.11.17.15.26l-.25-.6c.03.06.04.13.05.19l-.09-.66v.1c.07.68.25,1.27.74,1.77.43.43,1.15.76,1.77.73s1.32-.24,1.77-.73c.42-.46.79-1.12.73-1.77h0Z"/>
  <line class="cls-1" x1="10.14" y1="17.74" x2="44.36" y2="17.61"/>
  <rect class="cls-2" x="14.72" y="21.61" width="6.53" height="4.2"/>
  <rect class="cls-2" x="14.72" y="28.08" width="6.53" height="4.2"/>
  <rect class="cls-2" x="14.72" y="34.55" width="6.53" height="4.2"/>
  <rect class="cls-2" x="24.03" y="21.61" width="6.53" height="4.2"/>
  <rect class="cls-2" x="24.03" y="28.08" width="6.53" height="4.2"/>
  <rect class="cls-2" x="24.03" y="34.55" width="6.53" height="4.2"/>
  <rect class="cls-2" x="33.26" y="21.61" width="6.53" height="4.2"/>
  <rect class="cls-2" x="33.26" y="28.08" width="6.53" height="4.2"/>
  <rect class="cls-2" x="33.26" y="34.55" width="6.53" height="4.2"/>
</svg>