<?xml version="1.0" encoding="UTF-8"?>
<svg id="Lag_3" data-name="Lag 3" xmlns="http://www.w3.org/2000/svg" viewBox="0 0 54.15 50.38">
  <defs>
    <style>
      .cls-1 {
        fill: #e3a7c4;
      }
    </style>
  </defs>
  <path class="cls-1" d="m17.04,38.67c5.71-5.56,11.43-11.12,17.14-16.68,1.73-1.69-.92-4.34-2.65-2.65-5.71,5.56-11.43,11.12-17.14,16.68-1.73,1.69.92,4.34,2.65,2.65h0Z"/>
  <path class="cls-1" d="m33.21,21.01c3.36-3.31,6.71-6.62,10.07-9.93.46-.45-.25-1.16-.71-.71-3.36,3.31-6.71,6.62-10.07,9.93-.46.45.25,1.16.71.71h0Z"/>
  <path class="cls-1" d="m41.24,9.92c.14.63.28,1.26.42,1.88.02.09.09.15.17.17.74.22,1.48.45,2.23.67.31.09.44-.39.13-.48-.74-.22-1.48-.45-2.23-.67l.17.17c-.14-.63-.28-1.26-.42-1.88-.07-.31-.55-.18-.48.13h0Z"/>
  <path class="cls-1" d="m40.12,10.32c.12,1.57,1.23,2.9,2.77,3.27.24.06.48.09.73.1.32.01.32-.49,0-.5-.26,0-.44-.04-.7-.11-.42-.11-.82-.3-1.16-.58-.41-.33-.74-.77-.93-1.26-.07-.18-.13-.37-.17-.57-.03-.15-.04-.21-.05-.36-.02-.32-.52-.32-.5,0h0Z"/>
  <path class="cls-1" d="m39.02,11.36c.21.39.42.78.64,1.17.1.19.21.38.31.57.05.09.1.19.15.28.07.12.13.16.25.22.78.4,1.56.81,2.34,1.21.29.15.54-.28.25-.43-.75-.39-1.5-.77-2.24-1.16-.07-.04-.14-.06-.18-.12-.06-.08-.11-.19-.15-.28-.1-.19-.21-.38-.31-.57-.21-.38-.41-.76-.62-1.14-.15-.28-.59-.03-.43.25h0Z"/>
  <path class="cls-1" d="m38.18,12.17c.21.39.42.78.64,1.17.1.19.21.38.31.57.05.09.1.19.15.28.07.12.13.16.25.22.78.4,1.56.81,2.34,1.21.29.15.54-.28.25-.43-.75-.39-1.5-.77-2.24-1.16-.07-.04-.14-.06-.18-.12-.06-.08-.11-.19-.15-.28-.1-.19-.21-.38-.31-.57-.21-.38-.41-.76-.62-1.14-.15-.28-.59-.03-.43.25h0Z"/>
  <path class="cls-1" d="m37.07,13.13c1.26,1.19,2.52,2.39,3.76,3.59.23.22.59-.13.35-.35-1.25-1.21-2.5-2.4-3.76-3.59-.23-.22-.59.13-.35.35h0Z"/>
  <path class="cls-1" d="m36.21,14.06c1.46.92,2.7,2.15,3.65,3.59.18.27.61.02.43-.25-1-1.51-2.3-2.8-3.83-3.77-.27-.17-.52.26-.25.43h0Z"/>
  <path class="cls-1" d="m35.46,15.04c1.52.63,2.74,1.85,3.4,3.35.05.12.23.15.34.09.13-.07.14-.22.09-.34-.72-1.63-2.06-2.91-3.7-3.58-.13-.05-.27.06-.31.17-.04.14.05.26.17.31h0Z"/>
  <path class="cls-1" d="m34.64,16.08c.35.16.7.33,1.05.49.17.08.35.16.52.25.1.05.19.09.29.14s.11.04.17.13c.39.69.78,1.38,1.17,2.07.16.28.59.03.43-.25-.41-.72-.8-1.45-1.22-2.15-.1-.17-.29-.23-.47-.31s-.37-.17-.55-.26c-.38-.18-.76-.36-1.14-.53-.29-.14-.54.3-.25.43h0Z"/>
  <path class="cls-1" d="m34.14,17.32c.62.14,1.24.27,1.86.41l-.17-.17c.22.68.44,1.36.65,2.03.1.31.58.17.48-.13-.21-.67-.41-1.35-.65-2.01-.08-.21-.28-.22-.48-.26-.17-.04-.34-.08-.51-.11-.35-.08-.7-.15-1.05-.23-.31-.07-.45.41-.13.48h0Z"/>
</svg>