<?xml version="1.0" encoding="UTF-8"?>
<svg id="Lag_3" data-name="Lag 3" xmlns="http://www.w3.org/2000/svg" viewBox="0 0 54.15 50.38">
  <defs>
    <style>
      .cls-1 {
        stroke-width: 3px;
      }

      .cls-1, .cls-2 {
        fill: none;
        stroke: #e3a7c4;
        stroke-miterlimit: 10;
      }

      .cls-3 {
        fill: #e3a7c4;
      }

      .cls-2 {
        stroke-width: 2px;
      }
    </style>
  </defs>
  <circle class="cls-1" cx="25.6" cy="19.56" r="6.41"/>
  <path class="cls-2" d="m25.42,42.1c-2.05-2.8-3.62-5.21-4.72-6.97-4.99-8-5.66-11.31-5.89-12.82-.24-1.59-.48-3.25-.06-5.38.2-1.01,1.41-7.15,6.92-9.26,3.91-1.5,7.52-.04,7.98.16,2.27.96,3.56,2.49,4.15,3.2,2.09,2.53,2.49,5.21,2.64,6.37.49,3.6-.6,6.37-1.69,9.16-.48,1.22-1.15,2.7-4.47,8.03-1.94,3.11-3.63,5.68-4.86,7.53Z"/>
  <path class="cls-3" d="m15.72,15.64c.05.49.05.97.01,1.46,0,.1-.11.79-.03.3-.03.2-.07.4-.1.61-.18,1.05-.38,2.12-.41,3.19-.05,1.9.45,3.81,1.32,5.49.94,1.82,2.39,3.36,4.44,3.85,1.93.45,3.96.65,5.94.65,1.31,0,2.56-1.15,2.5-2.5s-1.1-2.5-2.5-2.5c-.81,0-1.62-.03-2.43-.11-.2-.02-.4-.04-.6-.07-.44-.05.58.1-.18-.03-.4-.07-.8-.14-1.2-.22-.13-.03-.27-.06-.4-.09-.05-.01-.56-.23-.28-.07s-.26-.25.09.06c-.14-.12-.25-.27-.38-.39-.2-.18.17.29-.07-.09-.1-.15-.2-.29-.29-.45-.19-.31-.34-.62-.5-.94-.17-.34.18.53-.03-.1-.04-.14-.09-.27-.13-.41-.1-.34-.18-.69-.25-1.04-.13-.64,0,.29,0-.08,0-.18-.03-.36-.03-.53,0-.38.01-.75.05-1.13l.03-.24c-.03.22-.03.24,0,.06.04-.2.07-.41.1-.61.07-.4.14-.81.2-1.21.14-.95.26-1.89.16-2.85-.13-1.3-1.06-2.56-2.5-2.5-1.24.06-2.64,1.11-2.5,2.5h0Z"/>
  <path class="cls-3" d="m26.77,30.91c1.29.31,2.58.07,3.65-.72.81-.59,1.39-1.38,2.16-2.01.92-.76,1.58-1.59,1.92-2.76l.08-.27c-.07.14-.07.14.01,0,.1-.18.22-.34.33-.52.32-.52.57-1.09.77-1.67.36-1.03.45-2.15.56-3.22s.16-2.25-.16-3.34c-.64-2.16-2.33-4.06-3.82-5.68-.92-.99-2.61-.93-3.54,0-.99.99-.92,2.54,0,3.54.97,1.05,1.99,2.09,2.54,3.44-.12-.29.09.66.07.34.03.38,0,.76-.03,1.14-.08.91-.07,1.09-.29,1.94-.04.18-.09.35-.16.52-.15.39.13-.22-.07.15-.16.29-.36.56-.52.85-.23.42-.41.87-.56,1.33-.13.43.07-.18-.04.17-.09.26.18-.17-.03,0-.49.41-.98.81-1.41,1.28-.12.13-.24.26-.36.39-.03.04-.35.38-.22.25.09-.06.08-.05-.04.03-.13.07-.14.08-.02.03,0,0,.48-.03.51-.02-1.27-.3-2.77.4-3.08,1.75s.39,2.75,1.75,3.08h0Z"/>
  <path class="cls-3" d="m32.1,10.06c-2.18-2.46-5.67-3.66-8.87-2.75-1.66.47-3.12,1.48-4.3,2.73-.65.68-1.23,1.44-1.79,2.2-.52.7-.97,1.51-1.12,2.38-.23,1.28.35,2.76,1.75,3.08,1.22.28,2.83-.37,3.08-1.75.03-.15.08-.3.11-.46.05-.27-.27.45,0,.01.15-.23.29-.45.45-.67.13-.18.25-.33.05-.07.11-.14.22-.27.33-.41.2-.24.4-.48.62-.7.23-.25.47-.49.73-.71.05-.05.49-.39.21-.18s.22-.14.23-.15c.22-.14.45-.25.67-.37.26-.15-.49.16-.06.03.13-.04.26-.09.39-.13.11-.03.21-.06.32-.08.48-.11.01.07-.1,0,.11.07.65-.04.81-.04.11,0,.22.01.32.02.54.02-.4-.09-.1-.02.27.06.53.11.8.19.11.03.29.13.39.14-.12,0-.44-.21-.14-.05.25.13.5.26.74.42.07.04.47.34.17.11s.13.12.15.14c.22.2.43.42.63.65.87.98,2.66.95,3.54,0,.96-1.05.93-2.49,0-3.54h0Z"/>
  <path class="cls-3" d="m16.97,28.25c.76,2.04,1.57,4.5,3.21,6.03.96.89,2.2,1.42,3.52,1.39,1.21-.03,2.33-.55,3.36-1.14.4-.23.82-.45,1.22-.68.16-.08.13-.06-.1.04.14-.05.28-.1.41-.15.33-.13.68-.26,1-.43.99-.53,1.69-1.44,2.39-2.28,1.51-1.82,2.89-3.73,3.51-6.05.34-1.26-.42-2.77-1.75-3.08s-2.71.39-3.08,1.75c-.06.22-.13.44-.2.66-.13.44.07-.1-.05.15-.18.38-.37.75-.59,1.11-.2.33-.41.65-.64.96-.02.02-.46.62-.17.24-.12.15-.24.3-.37.45-.49.6-.99,1.27-1.57,1.79.46-.41-.39.17.16-.1-.16.08-.35.13-.52.2-.5.2-.99.41-1.46.67-.32.17-.62.36-.94.54-.19.1-.38.2-.56.3.29-.16.18-.06-.07.01-.29.09-.35.07-.02.04-.57.06.41.13-.12,0,.28.07.29.11,0-.03-.22-.11.28.31,0-.03-.11-.13-.34-.54-.1-.1-.08-.15-.18-.28-.27-.42-.19-.33-.36-.67-.52-1.02-.09-.19-.17-.38-.26-.57-.05-.12-.23-.52-.09-.2-.19-.46-.37-.92-.55-1.39-.46-1.22-1.71-2.19-3.08-1.75-1.2.39-2.24,1.76-1.75,3.08h0Z"/>
  <path class="cls-3" d="m29.11,27.71c-1.07,1.15-2.05,2.38-2.97,3.65-.23.32-.34.87-.34,1.26,0,.56.2,1.08.54,1.51.61.79,1.65,1.16,2.63.9.25-.07.49-.13.74-.2l-2.82-3.67c-.42.69-.84,1.39-1.26,2.08-.19.32-.39.64-.59.96-.15.21-.1.15.14-.18-.06.06-.12.12-.18.18.36-.26.44-.33.23-.2-.07.04-.13.07-.2.1l.6-.25c-.18.07-.36.12-.55.15l.66-.09c-.19.02-.38.02-.58,0l.66.09c-.23-.03-.45-.09-.67-.17l.6.25c-.16-.07-.31-.17-.46-.26-.23-.14.4.37.23.17-.06-.07-.14-.14-.21-.21-.24-.24.17.18.17.22,0-.03-.11-.17-.13-.2-.11-.17-.19-.35-.27-.54l.25.6c-.07-.19-.14-.38-.19-.58-.33-1.27-1.8-2.16-3.08-1.75s-2.1,1.72-1.75,3.08c.67,2.6,2.99,4.63,5.77,4.26,1.53-.21,2.64-1.08,3.44-2.37.58-.93,1.13-1.87,1.7-2.8.52-.86.4-2-.2-2.78s-1.65-1.16-2.63-.9c-.25.07-.49.13-.74.2l2.82,3.67c.19-.27.39-.53.58-.79.11-.15.06-.08-.16.21.06-.08.12-.16.19-.24.09-.12.19-.23.28-.35.42-.5.85-.99,1.29-1.47.89-.96,1.02-2.6,0-3.54-.97-.89-2.59-1.02-3.54,0h0Z"/>
  <path class="cls-3" d="m25.42,35.22h-.45c-.88,0-1.71.48-2.16,1.24-.23.39-.34.81-.34,1.26,0,.45.12.87.34,1.26.25.39.5.79.76,1.18.22.38.52.67.9.9.39.23.81.34,1.26.34.88,0,1.71-.48,2.16-1.24.13-.23.27-.46.4-.68.18-.29.28-.6.3-.93.07-.33.06-.66-.04-1-.08-.33-.23-.61-.45-.85-.18-.27-.41-.49-.7-.64l-.6-.25c-.44-.12-.89-.12-1.33,0l-.6.25c-.38.22-.67.52-.9.9-.13.23-.27.46-.4.68h4.32c-.25-.39-.5-.79-.76-1.18l-2.16,3.76h.45c.34.01.67-.06.96-.21.31-.1.58-.27.8-.52.24-.23.42-.49.52-.8.16-.3.23-.62.22-.96l-.09-.66c-.12-.42-.33-.79-.64-1.1l-.51-.39c-.39-.23-.81-.34-1.26-.34h0Z"/>
  <path class="cls-3" d="m25.3,42.35c1.61,0,1.61-2.5,0-2.5s-1.61,2.5,0,2.5h0Z"/>
</svg>