<?xml version="1.0" encoding="UTF-8"?>
<svg id="Lag_3" data-name="Lag 3" xmlns="http://www.w3.org/2000/svg" viewBox="0 0 54.15 50.38">
  <defs>
    <style>
      .cls-1 {
        fill: #e3a7c4;
      }
    </style>
  </defs>
  <path class="cls-1" d="m12.93,27.45h26.5c2.41,0,2.42-3.75,0-3.75H12.93c-2.41,0-2.42,3.75,0,3.75h0Z"/>
  <path class="cls-1" d="m31.05,18.32c2.69,2.88,5.37,5.77,8.06,8.65v-2.65c-2.69,2.77-5.37,5.54-8.06,8.3-1.68,1.73.97,4.39,2.65,2.65,2.69-2.77,5.37-5.54,8.06-8.3.72-.75.7-1.9,0-2.65-2.69-2.88-5.37-5.77-8.06-8.65-1.65-1.77-4.3.89-2.65,2.65h0Z"/>
</svg>