<?xml version="1.0" encoding="UTF-8"?>
<svg id="Lag_3" data-name="Lag 3" xmlns="http://www.w3.org/2000/svg" viewBox="0 0 54.15 50.38">
  <defs>
    <style>
      .cls-1 {
        fill: #e3a7c4;
      }

      .cls-2 {
        fill: none;
        stroke: #e3a7c4;
        stroke-miterlimit: 10;
        stroke-width: .5px;
      }
    </style>
  </defs>
  <g>
    <path class="cls-2" d="m18.22,7.09c-1.62-.65-3.55,1.1-4.03,1.52-2.07,1.87-2.58,4.5-2.75,5.4-.85,4.66,1.28,8.7,2.88,11.64,3.48,6.41,8.18,9.6,11.69,11.98,5.02,3.41,7.75,3.7,9.07,3.74,1.36.04,4.49.08,6.77-2.29,1.2-1.24,2.58-3.59,1.92-5.26-.28-.71-.69-.74-3.39-2.36-2.99-1.79-3.52-2.37-4.44-2.11-.43.12-1.05.75-2.28,2-1.54,1.56-1.53,1.8-2.03,1.98-.45.16-1.3.26-4.16-1.82-1.35-.98-2.39-1.73-3.89-3.31-2.53-2.66-5.29-5.55-4.64-7.94.16-.6.52-1.08,1.25-2.03,1.35-1.79,2.11-1.78,2.35-2.71.25-.95-.41-1.44-1.9-4.29-1.57-3.01-1.52-3.79-2.43-4.16Z"/>
    <path class="cls-1" d="m18.27,14.08c0-.06,0-.11,0-.17l-.09.66c.01-.08.03-.15.06-.23l-.25.6c.03-.06.06-.12.1-.17l-.39.51c.05-.06.1-.11.16-.16l-.51.39s.09-.06.14-.08l-.6.25s.1-.03.15-.04l-.66.09c.06,0,.12,0,.19,0l-.66-.09c.07.01.14.03.21.06l-.6-.25c.06.03.11.06.16.1l-.51-.39s.08.07.11.11l-.39-.51c.05.07.09.14.12.21l-.25-.6c.08.18.12.37.19.55.08.21.19.55.35.78.36.52.52.67,1.03,1.04.62.44,1.53.55,2.25.36.97-.26,1.69-1,1.98-1.95.18-.57.14-1.17,0-1.73-.09-.37-.28-.72-.43-1.07-.19-.42-.38-.85-.57-1.27-.16-.29-.37-.53-.64-.7-.24-.22-.52-.37-.85-.45-.33-.1-.66-.12-1-.04-.33.02-.64.11-.93.3l-.51.39c-.31.31-.52.68-.64,1.1l-.09.66c0,.45.12.87.34,1.26.22.49.44.98.66,1.47l-.25-.6c.05.12.09.24.11.37l-.09-.66c0,.07.01.14,0,.21l.09-.66s-.02.07-.03.11l.25-.6s-.03.05-.04.07l.39-.51s-.04.04-.06.06l.51-.39s-.05.03-.08.04l.6-.25s-.04.01-.05.01l.66-.09s-.05,0-.08,0l.66.09s-.07-.02-.11-.03l.6.25s-.09-.05-.13-.08l.51.39s-.08-.07-.12-.12l.39.51c-.05-.06-.09-.13-.12-.2l.25.6c-.18-.45-.28-.93-.55-1.34-.14-.21-.3-.45-.5-.63-.16-.15-.38-.3-.56-.43-.03-.02-.05-.04-.08-.05-.53-.3-.94-.39-1.54-.43-.33-.02-.68.02-.99.14-.21.08-.45.17-.65.28-.03.02-.05.03-.08.05-.18.12-.38.28-.54.42-.02.02-.05.04-.07.07-.41.45-.6.8-.81,1.37-.02.06-.04.13-.05.19-.04.23-.08.48-.09.71,0,.04,0,.08,0,.12-.01.34.06.67.22.96.1.31.27.58.52.8.23.24.49.42.8.52.3.16.62.23.96.22l.66-.09c.42-.12.79-.33,1.1-.64l.39-.51c.23-.39.34-.81.34-1.26h0Z"/>
    <path class="cls-1" d="m14.43,9.85l-.15.41c-.1.33-.12.66-.04,1,.02.33.11.64.3.93.16.29.37.53.64.7.24.22.52.37.85.45l.66.09c.45,0,.87-.12,1.26-.34l.51-.39c.31-.31.52-.68.64-1.1l.15-.41c.1-.33.12-.66.04-1-.02-.33-.11-.64-.3-.93-.16-.29-.37-.53-.64-.7-.24-.22-.52-.37-.85-.45l-.66-.09c-.45,0-.87.12-1.26.34l-.51.39c-.31.31-.52.68-.64,1.1h0Z"/>
    <path class="cls-1" d="m16.99,12.76c3.22,0,3.22-5,0-5s-3.22,5,0,5h0Z"/>
    <path class="cls-1" d="m17.83,14.92c3.22,0,3.22-5,0-5s-3.22,5,0,5h0Z"/>
    <path class="cls-1" d="m18.52,16.49c3.22,0,3.22-5,0-5s-3.22,5,0,5h0Z"/>
    <path class="cls-1" d="m18.83,17.15c3.22,0,3.22-5,0-5s-3.22,5,0,5h0Z"/>
    <path class="cls-1" d="m13.43,11.76c0,.07,0,.14,0,.2l.09-.66c-.03.2-.08.39-.16.58l.25-.6c-.2.44-.49.84-.69,1.28-.4.86-.58,1.71-.55,2.66.04,1.5.24,3,.54,4.47.12.59.64,1.2,1.15,1.49.54.31,1.33.45,1.93.25,1.36-.44,2.03-1.7,1.75-3.08-.1-.51-.19-1.02-.26-1.54l.09.66c-.13-.98-.28-2.04-.17-3.03l-.09.66c.03-.19.08-.36.15-.54l-.25.6c.17-.4.42-.76.62-1.14.38-.72.62-1.45.63-2.27,0-1.31-1.16-2.56-2.5-2.5s-2.49,1.1-2.5,2.5h0Z"/>
    <path class="cls-1" d="m15.92,25.35c3.22,0,3.22-5,0-5s-3.22,5,0,5h0Z"/>
    <path class="cls-1" d="m16.84,26.92c3.22,0,3.22-5,0-5s-3.22,5,0,5h0Z"/>
    <path class="cls-1" d="m16.3,27.98c2.07,2.44,4.11,5.16,7.01,6.68.87.46,2.08.25,2.57-.67.46-.86.25-2.08-.67-2.57-.33-.17-.64-.36-.95-.56-.15-.1-.3-.21-.45-.32-.2-.15.06.04.11.09-.08-.07-.17-.14-.26-.21-.56-.47-1.09-.98-1.6-1.51-1.09-1.15-2.09-2.38-3.11-3.58-.64-.75-2-.7-2.65,0-.73.8-.68,1.85,0,2.65h0Z"/>
    <path class="cls-1" d="m23.38,34.79c.2.04.4.09.59.17l-.45-.19c.24.1.46.23.67.39l-.38-.29c.21.16.39.35.56.56l-.29-.38c.05.07.1.13.14.2l1.62-2.82s-.04,0-.06,0l.5.07c-.12-.02-.24-.05-.35-.1l.45.19c-.11-.05-.22-.11-.32-.19l.38.29c-.11-.08-.2-.18-.28-.29l.29.38c-.08-.1-.14-.21-.19-.33-.12-.22-.28-.39-.48-.53-.18-.17-.39-.28-.64-.34-.25-.08-.5-.09-.75-.03-.25.01-.48.09-.7.22-.4.26-.75.64-.86,1.12l-.07.5c0,.34.09.65.26.95.12.27.32.5.5.73s.43.39.66.56.51.27.78.38.59.13.88.16c.34,0,.65-.09.95-.26.28-.17.51-.39.67-.67.32-.55.36-1.34,0-1.89-.14-.21-.3-.42-.46-.62-.07-.08-.14-.16-.21-.24-.25-.26-.55-.48-.84-.68-.23-.16-.49-.27-.75-.38s-.53-.22-.82-.27c-.25-.08-.5-.09-.75-.03-.25.01-.48.09-.7.22-.22.12-.39.28-.53.48-.17.18-.28.39-.34.64l-.07.5c0,.34.09.65.26.95l.29.38c.23.23.51.39.83.48h0Z"/>
    <path class="cls-1" d="m26.17,36.82c.64.37,1.26.78,1.85,1.24l-.38-.29c.1.08.2.15.29.23.17.18.37.31.6.39.22.12.46.17.72.16l.5-.07c.24-.06.46-.17.64-.34.31-.24.58-.58.67-.97.11-.48.09-1.02-.19-1.44-.25-.37-.53-.74-.86-1.04s-.69-.58-1.07-.79c-.78-.42-1.66-.67-2.55-.65-.49.01-.98.2-1.33.55-.33.33-.57.86-.55,1.33s.18.99.55,1.33.82.56,1.33.55c.16,0,.31,0,.47.02l-.5-.07c.28.04.56.11.83.22l-.45-.19c.28.12.54.27.79.46l-.38-.29c.23.18.44.39.62.63l-.29-.38c.05.07.11.15.16.22l2.94-2.27c-.8-.64-1.63-1.25-2.52-1.76-.42-.24-.97-.32-1.44-.19-.43.12-.91.46-1.12.86-.23.44-.35.96-.19,1.44s.43.87.86,1.12h0Z"/>
    <path class="cls-1" d="m30.26,39.2l1.47.57,1-3.62c-.67-.24-1.34-.49-2.01-.73-.25-.08-.5-.09-.75-.03-.25.01-.48.09-.7.22-.22.12-.39.28-.53.48-.17.18-.28.39-.34.64l-.07.5c0,.34.09.65.26.95l.29.38c.23.23.51.39.83.48.67.24,1.34.49,2.01.73.25.08.5.09.75.03.25-.01.48-.09.7-.22.22-.12.39-.28.53-.48.17-.18.28-.39.34-.64l.07-.5c0-.34-.09-.65-.26-.95l-.29-.38c-.23-.23-.51-.39-.83-.48l-1.47-.57c-.25-.08-.5-.09-.75-.03-.25.01-.48.09-.7.22-.22.12-.39.28-.53.48-.17.18-.28.39-.34.64l-.07.5c0,.34.09.65.26.95l.29.38c.23.23.51.39.83.48h0Z"/>
    <path class="cls-1" d="m35.98,35.44v-.33c0-.26-.04-.5-.16-.72-.08-.23-.2-.43-.39-.6-.17-.18-.37-.31-.6-.39-.22-.12-.46-.17-.72-.16l-.5.07c-.32.09-.59.25-.83.48l-.29.38c-.17.29-.25.61-.26.95v.33c0,.26.04.5.16.72.08.23.2.43.39.6.17.18.37.31.6.39.22.12.46.17.72.16l.5-.07c.32-.09.59-.25.83-.48l.29-.38c.17-.29.25-.61.26-.95h0Z"/>
    <path class="cls-1" d="m34.95,35.74c2.41,0,2.42-3.75,0-3.75s-2.42,3.75,0,3.75h0Z"/>
    <path class="cls-1" d="m33.7,32.31l-1.25,1.8c-.52.75-1.21,1.5-1.19,2.47.02,1.12.92,2.02,1.83,2.56.73.43,1.53.63,2.37.7,1.51.13,3.1-.5,4.34-1.31.78-.51,1.47-1.19,1.76-2.1.32-1.02,0-2.18-.8-2.89s-1.93-1.06-2.98-.92c-.64.09-1.21.33-1.67.8s-.8,1.23-.74,1.91.32,1.26.93,1.62,1.28.3,1.89,0c.17-.09.34-.17.52-.26.88-.44,1.2-1.75.67-2.57-.58-.9-1.62-1.14-2.57-.67-.17.09-.34.17-.52.26l2.82,1.62c-.01-.06-.01-.12,0-.18l-.07.5c.04-.19,0-.12-.1.19-.21.25-.25.3-.12.17-.14.15-.31.25-.5.3.07-.02.14-.03.21-.04l-.5.07c.11,0,.21,0,.32,0l-.5-.07c.13.02.27.04.4.08.06.02.11.03.17.05.29.09-.34-.18-.16-.06.06.04.24.17,0-.03s-.07-.06-.02,0c.06.07.04.04-.07-.09-.08-.07-.13-.16-.15-.26-.13-.31-.03-.04-.02.04l-.07-.5c0,.06,0,.13,0,.19l.07-.5c0,.06-.04.13-.04.19.13-.28.16-.36.09-.23-.01.03-.03.06-.05.08-.07.17.25-.27.11-.14-.06.05-.12.12-.18.18-.18.18.11-.06.14-.1-.05.06-.15.1-.21.14-.15.09-.3.19-.45.27-.14.08-.28.15-.42.22-.03.02-.39.18-.1.05.27-.11.01,0-.05.01-.34.13-.7.21-1.06.27l.5-.07c-.35.04-.68.04-1.03,0l.5.07c-.18-.03-.36-.07-.54-.12-.08-.02-.16-.07-.24-.08.39.07.28.13.08.02-.07-.04-.15-.08-.22-.13-.3-.2.05.09.1.08-.03,0-.2-.19-.22-.21l-.07-.08c.13.13.23.29.29.47l.07.5v-.1c-.02.17-.04.33-.07.5-.14.29-.17.36-.06.19l.15-.21.29-.42.51-.74,1.1-1.59c.56-.81.17-2.12-.67-2.57-.96-.51-1.97-.19-2.57.67h0Z"/>
    <path class="cls-1" d="m41.37,34.11c.04-.42-.12-.91-.33-1.26s-.56-.69-.93-.9c-.24-.14-.52-.25-.8-.31-.16-.04-.32-.06-.47-.12l.45.19c-.07-.03-.13-.07-.19-.11l.38.29s-.07-.06-.1-.1l.29.38c-.16-.22-.29-.44-.48-.66-.17-.19-.38-.35-.6-.47s-.47-.22-.73-.26c-.12-.02-.24-.04-.36-.08l.45.19c-.07-.03-.12-.06-.18-.11l.38.29s-.06-.06-.09-.09l.29.38s-.04-.07-.06-.1l.19.45s-.02-.05-.02-.08l.07.5s0-.06,0-.08c.04-.58-.3-1.13-.74-1.47s-1.07-.51-1.63-.34c-.05.02-.1.03-.15.04l.5-.07s-.07,0-.1,0l.5.07h-.05c.15.05.3.11.45.18l-.03-.02.38.29-.03-.03.29.38s-.03-.04-.04-.07l.19.45v-.04c.01.17.03.33.06.5v-.04c-.02.17-.05.33-.07.5v-.04c-.05.15-.12.3-.18.45l.02-.03-2.94.38c.46.59,1.03,1.07,1.64,1.49.45.32.96.54,1.4.88l-.38-.29c.17.13.33.28.46.45l-.29-.38s.04.05.06.08c.12.22.28.39.48.53.18.17.39.28.64.34.45.12,1.05.07,1.44-.19s.75-.64.86-1.12.1-1.04-.19-1.44c-.22-.31-.44-.61-.74-.85s-.57-.45-.89-.64c-.4-.24-.82-.46-1.19-.75l.38.29c-.39-.3-.74-.65-1.04-1.04-.23-.23-.51-.39-.83-.48-.25-.08-.5-.09-.75-.03-.25.01-.48.09-.7.22-.28.17-.51.39-.67.67-.48.8-.32,1.85.33,2.5.57.56,1.41.72,2.16.49l-2.37-1.81c-.01.2.03.43.07.62s.14.4.25.57c.1.16.23.34.37.47s.32.28.5.38c.23.12.48.23.74.28.14.03.29.05.42.1l-.45-.19s.08.04.12.07l-.38-.29s.07.06.1.1l-.29-.38c.33.45.62.92,1.15,1.16.25.11.49.22.76.28.13.03.27.05.39.1l-.45-.19c.08.04.16.08.23.13l-.38-.29s.08.08.12.12l-.29-.38s.05.07.06.11l-.19-.45s.03.08.03.12l-.07-.5s0,.08,0,.13c-.05.45.24,1.02.55,1.33.33.33.86.57,1.33.55s.99-.18,1.33-.55l.29-.38c.17-.29.25-.61.26-.95h0Z"/>
    <path class="cls-1" d="m40.68,36.4c2.41,0,2.42-3.75,0-3.75s-2.42,3.75,0,3.75h0Z"/>
    <path class="cls-1" d="m41.6,37.07c2.41,0,2.42-3.75,0-3.75s-2.42,3.75,0,3.75h0Z"/>
    <path class="cls-1" d="m41.75,36.98c2.41,0,2.42-3.75,0-3.75s-2.42,3.75,0,3.75h0Z"/>
    <path class="cls-1" d="m39.56,35.23c-.04.08-.29.66-.07.22-.07.15-.27.28-.39.39-.16.13-.14.12.05-.04-.08.06-.17.12-.25.17-.17.11-.34.21-.52.31s-.36.2-.54.26c.31-.1.05-.02-.11.03-.41.15-.82.27-1.24.36-.21.05-.43.09-.64.12.46-.06-.23,0-.31.01-.37.02-.73.02-1.1,0-.08,0-.17-.01-.25-.02.29.04.33.05.13.01-.04-.01-.48-.1-.48-.13.26.12.29.13.11.04-.07-.04-.14-.08-.21-.12.21.18.25.2.1.06-.13-.15-.12-.12.06.09-.56-.8-1.66-1.25-2.57-.67-.79.51-1.28,1.71-.67,2.57.69.98,1.66,1.63,2.86,1.82s2.44.13,3.66-.09c1.08-.19,2.15-.58,3.11-1.1s2.05-1.33,2.53-2.39c.4-.89.29-2.06-.67-2.57-.82-.43-2.14-.28-2.57.67h0Z"/>
    <path class="cls-1" d="m30.75,37.74c.18.09.38.18.57.24.14.04.28.05.42.07.37.05.64.03,1.03-.04.27-.05.53-.18.77-.29.12-.06.23-.12.34-.2.34-.25.63-.5.92-.81.19-.2.37-.4.58-.57l-.38.29c.22-.17.45-.32.67-.5.15-.13.27-.3.38-.47.02-.03.04-.06.05-.09.08-.15.16-.35.21-.51l.07-.5-.07-.5-.19-.45c-.12-.22-.28-.39-.48-.53-.12-.12-.25-.2-.41-.24-.15-.08-.3-.13-.47-.13-.17-.04-.33-.04-.5,0-.25.01-.48.09-.7.22-1.2.68-2.32,1.53-3.31,2.49-.34.33-.55.85-.55,1.33s.2,1.01.55,1.33.83.57,1.33.55.96-.19,1.33-.55c.39-.38.8-.74,1.24-1.07l-.38.29c.54-.42,1.11-.79,1.7-1.13l-2.75-2.12v.04c.05-.15.11-.3.18-.45-.02.04-.04.07-.06.11l.29-.38s-.08.08-.12.11l.38-.29c-.37.27-.74.53-1.05.86-.22.23-.43.48-.68.68l.38-.29c-.13.09-.26.17-.4.24l.45-.19c-.1.04-.2.07-.3.09l.5-.07c-.09.01-.17.01-.26,0l.5.07c-.07-.01-.14-.03-.21-.06l.45.19s-.05-.02-.08-.04c-.45-.23-.95-.33-1.44-.19-.43.12-.91.46-1.12.86-.23.44-.35.96-.19,1.44.15.45.43.9.86,1.12h0Z"/>
    <path class="cls-1" d="m30.08,37.66c2.41,0,2.42-3.75,0-3.75s-2.42,3.75,0,3.75h0Z"/>
    <path class="cls-1" d="m28.47,36.96c2.41,0,2.42-3.75,0-3.75s-2.42,3.75,0,3.75h0Z"/>
    <path class="cls-1" d="m27.29,36.38c2.41,0,2.42-3.75,0-3.75s-2.42,3.75,0,3.75h0Z"/>
    <path class="cls-1" d="m26.25,35.25c2.41,0,2.42-3.75,0-3.75s-2.42,3.75,0,3.75h0Z"/>
    <path class="cls-1" d="m25,34.63c2.41,0,2.42-3.75,0-3.75s-2.42,3.75,0,3.75h0Z"/>
    <path class="cls-1" d="m23.78,33.54c2.41,0,2.42-3.75,0-3.75s-2.42,3.75,0,3.75h0Z"/>
    <path class="cls-1" d="m22.56,32.42c2.41,0,2.42-3.75,0-3.75s-2.42,3.75,0,3.75h0Z"/>
    <path class="cls-1" d="m21.56,31.52c2.41,0,2.42-3.75,0-3.75s-2.42,3.75,0,3.75h0Z"/>
    <path class="cls-1" d="m20.7,30.24c2.41,0,2.42-3.75,0-3.75s-2.42,3.75,0,3.75h0Z"/>
    <path class="cls-1" d="m19.55,29.08c2.41,0,2.42-3.75,0-3.75s-2.42,3.75,0,3.75h0Z"/>
    <path class="cls-1" d="m18.62,28.03c2.41,0,2.42-3.75,0-3.75s-2.42,3.75,0,3.75h0Z"/>
    <path class="cls-1" d="m14.75,22.9c2.41,0,2.42-3.75,0-3.75s-2.42,3.75,0,3.75h0Z"/>
    <path class="cls-1" d="m13.82,21.35c2.41,0,2.42-3.75,0-3.75s-2.42,3.75,0,3.75h0Z"/>
    <path class="cls-1" d="m13.82,19.99c2.41,0,2.42-3.75,0-3.75s-2.42,3.75,0,3.75h0Z"/>
    <path class="cls-1" d="m13.42,18.75c2.41,0,2.42-3.75,0-3.75s-2.42,3.75,0,3.75h0Z"/>
    <path class="cls-1" d="m18.19,18.87c2.41,0,2.42-3.75,0-3.75s-2.42,3.75,0,3.75h0Z"/>
    <path class="cls-1" d="m17.04,20.19c2.41,0,2.42-3.75,0-3.75s-2.42,3.75,0,3.75h0Z"/>
    <path class="cls-1" d="m17.15,20.54c2.41,0,2.42-3.75,0-3.75s-2.42,3.75,0,3.75h0Z"/>
    <path class="cls-1" d="m16.65,22.28c2.41,0,2.42-3.75,0-3.75s-2.42,3.75,0,3.75h0Z"/>
    <path class="cls-1" d="m19.05,17.66c2.41,0,2.42-3.75,0-3.75s-2.42,3.75,0,3.75h0Z"/>
    <path class="cls-1" d="m20.23,16.93c2.41,0,2.42-3.75,0-3.75s-2.42,3.75,0,3.75h0Z"/>
    <path class="cls-1" d="m15,13.08c2.41,0,2.42-3.75,0-3.75s-2.42,3.75,0,3.75h0Z"/>
    <path class="cls-1" d="m14.28,14.17c2.41,0,2.42-3.75,0-3.75s-2.42,3.75,0,3.75h0Z"/>
    <path class="cls-1" d="m13.71,15.64c2.41,0,2.42-3.75,0-3.75s-2.42,3.75,0,3.75h0Z"/>
    <path class="cls-1" d="m13.6,16.61c2.41,0,2.42-3.75,0-3.75s-2.42,3.75,0,3.75h0Z"/>
  </g>
  <path class="cls-1" d="m16.91,12.13c3.22,0,3.22-5,0-5s-3.22,5,0,5h0Z"/>
  <path class="cls-1" d="m17.03,12.01c3.22,0,3.22-5,0-5s-3.22,5,0,5h0Z"/>
  <path class="cls-1" d="m17.32,13.18c3.22,0,3.22-5,0-5s-3.22,5,0,5h0Z"/>
  <path class="cls-1" d="m15.57,12.59s.02.03.03.04l-.39-.51c.17.22.31.45.41.71l-.25-.6c.04.09.07.18.1.27l4.57-1.93c-.21-.47-.42-.93-.64-1.4-.16-.29-.37-.53-.64-.7-.24-.22-.52-.37-.85-.45-.33-.1-.66-.12-1-.04-.33.02-.64.11-.93.3l-.51.39c-.31.31-.52.68-.64,1.1l-.09.66c0,.45.12.87.34,1.26.21.47.42.93.64,1.4.16.29.37.53.64.7.24.22.52.37.85.45l.66.09c.34.01.67-.06.96-.22.21-.06.4-.17.55-.32.27-.18.49-.41.64-.7l.25-.6c.12-.44.12-.89,0-1.33-.06-.2-.15-.38-.22-.57s-.15-.38-.25-.56c-.19-.36-.46-.68-.71-.99-.23-.24-.49-.42-.8-.52-.3-.16-.62-.23-.96-.22-.34-.01-.67.06-.96.22-.31.1-.58.27-.8.52l-.39.51c-.23.39-.34.81-.34,1.26l.09.66c.12.42.33.79.64,1.1h0Z"/>
  <path class="cls-1" d="m18.45,15.13c3.22,0,3.22-5,0-5s-3.22,5,0,5h0Z"/>
  <path class="cls-1" d="m18.94,16.43c3.22,0,3.22-5,0-5s-3.22,5,0,5h0Z"/>
  <path class="cls-1" d="m19.23,16.35c3.22,0,3.22-5,0-5s-3.22,5,0,5h0Z"/>
  <path class="cls-1" d="m19.67,17.53c3.22,0,3.22-5,0-5s-3.22,5,0,5h0Z"/>
  <path class="cls-1" d="m19.87,17.53c3.22,0,3.22-5,0-5s-3.22,5,0,5h0Z"/>
  <path class="cls-1" d="m19.96,17.49c3.22,0,3.22-5,0-5s-3.22,5,0,5h0Z"/>
  <path class="cls-1" d="m16.94,14.04c-.93.99-1.57,2.19-2.24,3.36-.18.29-.28.6-.3.93-.07.33-.06.66.04,1,.08.33.23.61.45.85.18.27.41.49.7.64.58.31,1.28.46,1.93.25s1.17-.57,1.49-1.15c.47-.82.91-1.68,1.48-2.43l-.39.51c.11-.15.23-.29.36-.42.45-.48.73-1.11.73-1.77.01-.34-.06-.67-.22-.96-.1-.31-.27-.58-.52-.8-.48-.44-1.1-.76-1.77-.73s-1.31.24-1.77.73h0Z"/>
  <path class="cls-1" d="m13.62,19.07c3.22,0,3.22-5,0-5s-3.22,5,0,5h0Z"/>
  <path class="cls-1" d="m13.9,17.49c3.22,0,3.22-5,0-5s-3.22,5,0,5h0Z"/>
  <path class="cls-1" d="m14.07,16.35c3.22,0,3.22-5,0-5s-3.22,5,0,5h0Z"/>
  <path class="cls-1" d="m14.51,15.25c3.22,0,3.22-5,0-5s-3.22,5,0,5h0Z"/>
  <path class="cls-1" d="m14.88,14.24c3.22,0,3.22-5,0-5s-3.22,5,0,5h0Z"/>
  <path class="cls-1" d="m15.69,13.26c3.22,0,3.22-5,0-5s-3.22,5,0,5h0Z"/>
  <path class="cls-1" d="m14.03,21.18c3.22,0,3.22-5,0-5s-3.22,5,0,5h0Z"/>
  <path class="cls-1" d="m14.6,22.89c3.22,0,3.22-5,0-5s-3.22,5,0,5h0Z"/>
  <path class="cls-1" d="m15.08,24.43c3.22,0,3.22-5,0-5s-3.22,5,0,5h0Z"/>
  <path class="cls-1" d="m16.42,23.95c3.22,0,3.22-5,0-5s-3.22,5,0,5h0Z"/>
  <path class="cls-1" d="m16.79,26.1c3.22,0,3.22-5,0-5s-3.22,5,0,5h0Z"/>
  <path class="cls-1" d="m17.8,27.62c3.22,0,3.22-5,0-5s-3.22,5,0,5h0Z"/>
  <path class="cls-1" d="m18.55,28.92c3.22,0,3.22-5,0-5s-3.22,5,0,5h0Z"/>
  <path class="cls-1" d="m19.58,29.95c3.22,0,3.22-5,0-5s-3.22,5,0,5h0Z"/>
  <path class="cls-1" d="m20.63,31.24c3.22,0,3.22-5,0-5s-3.22,5,0,5h0Z"/>
  <path class="cls-1" d="m21.93,32.51c3.22,0,3.22-5,0-5s-3.22,5,0,5h0Z"/>
  <path class="cls-1" d="m23.37,33.93c3.22,0,3.22-5,0-5s-3.22,5,0,5h0Z"/>
  <path class="cls-1" d="m24.79,35.25c3.22,0,3.22-5,0-5s-3.22,5,0,5h0Z"/>
  <path class="cls-1" d="m26.27,36.31c3.22,0,3.22-5,0-5s-3.22,5,0,5h0Z"/>
  <path class="cls-1" d="m27.54,37.12c3.22,0,3.22-5,0-5s-3.22,5,0,5h0Z"/>
  <path class="cls-1" d="m29.19,38.03c3.22,0,3.22-5,0-5s-3.22,5,0,5h0Z"/>
  <path class="cls-1" d="m31.7,38.36c3.22,0,3.22-5,0-5s-3.22,5,0,5h0Z"/>
  <path class="cls-1" d="m34.05,37.15c3.22,0,3.22-5,0-5s-3.22,5,0,5h0Z"/>
  <path class="cls-1" d="m35.34,35.86c3.22,0,3.22-5,0-5s-3.22,5,0,5h0Z"/>
  <path class="cls-1" d="m36.43,34.47c3.22,0,3.22-5,0-5s-3.22,5,0,5h0Z"/>
  <path class="cls-1" d="m37.76,35.37c3.22,0,3.22-5,0-5s-3.22,5,0,5h0Z"/>
  <path class="cls-1" d="m38.93,36.13c3.22,0,3.22-5,0-5s-3.22,5,0,5h0Z"/>
  <path class="cls-1" d="m39.75,36.58c3.22,0,3.22-5,0-5s-3.22,5,0,5h0Z"/>
  <path class="cls-1" d="m40.62,37.12c3.22,0,3.22-5,0-5s-3.22,5,0,5h0Z"/>
  <path class="cls-1" d="m41.43,37.45c3.22,0,3.22-5,0-5s-3.22,5,0,5h0Z"/>
  <path class="cls-1" d="m40.8,39.05c3.22,0,3.22-5,0-5s-3.22,5,0,5h0Z"/>
  <path class="cls-1" d="m39.84,39.96c3.22,0,3.22-5,0-5s-3.22,5,0,5h0Z"/>
  <path class="cls-1" d="m38.87,40.8c3.22,0,3.22-5,0-5s-3.22,5,0,5h0Z"/>
  <path class="cls-1" d="m37.09,41.25c3.22,0,3.22-5,0-5s-3.22,5,0,5h0Z"/>
  <path class="cls-1" d="m35.28,41.37c3.22,0,3.22-5,0-5s-3.22,5,0,5h0Z"/>
  <path class="cls-1" d="m33.53,41.13c3.22,0,3.22-5,0-5s-3.22,5,0,5h0Z"/>
  <path class="cls-1" d="m31.82,40.56c3.22,0,3.22-5,0-5s-3.22,5,0,5h0Z"/>
  <path class="cls-1" d="m30.07,39.65c3.22,0,3.22-5,0-5s-3.22,5,0,5h0Z"/>
  <path class="cls-1" d="m28.59,38.81c3.22,0,3.22-5,0-5s-3.22,5,0,5h0Z"/>
  <path class="cls-1" d="m26.93,37.69c3.22,0,3.22-5,0-5s-3.22,5,0,5h0Z"/>
  <path class="cls-1" d="m25.82,36.85c3.22,0,3.22-5,0-5s-3.22,5,0,5h0Z"/>
  <path class="cls-1" d="m24.67,36.1c3.22,0,3.22-5,0-5s-3.22,5,0,5h0Z"/>
  <path class="cls-1" d="m23.25,35.04c3.22,0,3.22-5,0-5s-3.22,5,0,5h0Z"/>
  <path class="cls-1" d="m22.08,33.9c3.22,0,3.22-5,0-5s-3.22,5,0,5h0Z"/>
  <path class="cls-1" d="m21.14,32.99c3.22,0,3.22-5,0-5s-3.22,5,0,5h0Z"/>
  <path class="cls-1" d="m20.18,32.06c3.22,0,3.22-5,0-5s-3.22,5,0,5h0Z"/>
  <path class="cls-1" d="m19.18,30.79c3.22,0,3.22-5,0-5s-3.22,5,0,5h0Z"/>
  <path class="cls-1" d="m18.55,29.64c3.22,0,3.22-5,0-5s-3.22,5,0,5h0Z"/>
  <path class="cls-1" d="m18.55,29.89c3.22,0,3.22-5,0-5s-3.22,5,0,5h0Z"/>
  <path class="cls-1" d="m18.07,29.25c3.22,0,3.22-5,0-5s-3.22,5,0,5h0Z"/>
  <path class="cls-1" d="m17.65,28.65c3.22,0,3.22-5,0-5s-3.22,5,0,5h0Z"/>
  <path class="cls-1" d="m17.13,27.65c3.22,0,3.22-5,0-5s-3.22,5,0,5h0Z"/>
  <path class="cls-1" d="m16.56,26.54c3.22,0,3.22-5,0-5s-3.22,5,0,5h0Z"/>
  <path class="cls-1" d="m16.14,26.03c3.22,0,3.22-5,0-5s-3.22,5,0,5h0Z"/>
  <path class="cls-1" d="m16.56,26.93c3.22,0,3.22-5,0-5s-3.22,5,0,5h0Z"/>
</svg>