<?xml version="1.0" encoding="UTF-8"?>
<svg id="Lag_3" data-name="Lag 3" xmlns="http://www.w3.org/2000/svg" viewBox="0 0 54.15 50.38">
  <defs>
    <style>
      .cls-1 {
        fill: none;
        stroke: #e3a7c4;
        stroke-miterlimit: 10;
        stroke-width: 3px;
      }

      .cls-2 {
        fill: #e3a7c4;
      }
    </style>
  </defs>
  <circle class="cls-1" cx="27.06" cy="25.19" r="18.21"/>
  <path class="cls-2" d="m25.11,13.9c.03,3.59.05,7.17.08,10.76,0,.51-.01,1.01.26,1.48.25.43.68.77,1.03,1.12.61.62,1.23,1.24,1.84,1.86,1.27,1.28,2.54,2.56,3.8,3.84,1.7,1.72,4.35-.94,2.65-2.65-2.13-2.15-4.26-4.29-6.38-6.44l.55,1.33c-.03-3.76-.05-7.53-.08-11.29-.02-2.41-3.77-2.42-3.75,0h0Z"/>
</svg>