<?xml version="1.0" encoding="UTF-8"?>
<svg id="Lag_3" data-name="Lag 3" xmlns="http://www.w3.org/2000/svg" viewBox="0 0 54.15 50.38">
  <defs>
    <style>
      .cls-1 {
        fill: #191815;
      }

      .cls-1:hover {
        fill: #da7ea9;
      }

      

      .cls-2 {
        fill: none;
        stroke: #191815;
        stroke-miterlimit: 10;
      }

    .cls-2:hover {
      stroke: #da7ea9;
      }


    </style>
  </defs>
  <path class="cls-2" d="m38.39,43.92H14.9c-.5,0-3.16-.05-5.31-2.2-1.36-1.36-2.2-3.24-2.2-5.31V14.25c0-4.15,3.36-7.51,7.51-7.51h23.49c4.15,0,7.51,3.36,7.51,7.51v22.15c0,4.15-3.36,7.51-7.51,7.51Z"/>
  <path class="cls-2" d="m32.76,43.92c0-4.69,0-9.38,0-14.08,2.12.02,4.25.05,6.37.07l.04-6.25h-6.38c-.05-.29-.29-1.71.6-2.82.54-.67,1.24-.92,1.59-1.05.61-.22,1.21-.24,2.37-.26.75-.01,1.37,0,1.82.03.02-2.12.04-4.24.06-6.36-.79-.07-1.65-.11-2.59-.1-1.2.02-2.3.12-3.26.27-.93.14-3.23.68-4.91,2.66-1.11,1.31-1.42,2.73-1.75,4.19-.31,1.38-.36,2.58-.34,3.41-1.47.02-2.94.04-4.41.06.02,2.08.04,4.16.06,6.25h4.7v13.97"/>
  <path class="cls-1" d="m18.68,10.64c-3.15,1.93-5.72,4.74-7.21,8.12l4.66,1.26c-.17-1.51-.08-3.05.55-4.46.48-1.08.42-2.13-.39-3.03-1.28-1.44-3.39-1.05-4.68.13-1.07.98-1.95,2.22-2.76,3.41l4.57.6c-.96-2.34.34-4.68,2.77-4.72,3.25-.05,3.19-4.78,0-5-2.47-.17-5.11.5-6.92,2.25-2.1,2.03-2.25,4.95-2.06,7.68.37,5.26.9,10.76,3.88,15.28.74,1.13,2.21,1.6,3.42.9,1.12-.65,1.64-2.29.9-3.42-2.22-3.37-2.78-7.4-3.09-11.35-.12-1.55-.74-4.08.33-5.42.16-.2.81-.59,1.15-.7.88-.28,1.42-.3,2.4-.23v-5c-5.54.09-9.78,5.74-7.59,11.05.82,2,3.29,2.49,4.57.6.29-.43.58-.84.91-1.24.15-.19.31-.37.47-.55.12-.14.24-.27.37-.4.45-.43.05-.39-1.21.13l-1.1-.64.15.16-.39-3.03c-.98,2.22-1.5,4.55-1.23,6.98.12,1.11.69,2.1,1.84,2.41.98.27,2.38-.15,2.82-1.15,1.16-2.64,2.95-4.82,5.42-6.33,2.74-1.68.23-6-2.52-4.32h0Z"/>
  <path class="cls-1" d="m17,29.44v.97h5v-.13c-.04.22-.07.44-.1.66-.18.39-.21.47-.09.23l.25-.6c.12-.32.15-.64.18-.99.03-.3,0-.61,0-.91-.02-.72-.02-1.44,0-2.17.04-1.44.16-2.88.35-4.32l-.09.66c.03-.23.06-.46.1-.69.1-.69.12-1.3-.25-1.93-.3-.52-.9-1.01-1.49-1.15-.64-.15-1.36-.11-1.93.25-.51.33-1.06.87-1.15,1.49-.23,1.56-.42,3.14-.5,4.72-.03.69-.05,1.39-.05,2.08s.09,1.36.01,2.02l.09-.66c-.07.25-.03.18.11-.22-.07.14-.14.28-.19.42-.17.39-.28.76-.24,1.21.11,1.3,1.07,2.56,2.5,2.5s2.5-1.1,2.5-2.5v-.97c0-1.31-1.15-2.56-2.5-2.5s-2.5,1.1-2.5,2.5h0Z"/>
  <path class="cls-1" d="m22.01,23.69c3.22,0,3.22-5,0-5s-3.22,5,0,5h0Z"/>
  <path class="cls-1" d="m23.89,23.69c3.22,0,3.22-5,0-5s-3.22,5,0,5h0Z"/>
  <path class="cls-1" d="m26.38,20.56v-4.79c0-.79.05-1.68-.37-2.4-.47-.81-1.36-1.42-2.31-1.41-1.64,0-2.84,1.48-3.99,2.47-1.03.89-2.11,1.74-3,2.77-3.93,4.59-4.06,11.51-3.47,17.21l4.91-.66c-.87-2.22-1.45-4.53-1.6-6.92-.16-2.57-.25-4.97-1.28-7.36-.85-1.97-4.15-1.39-4.57.6-.9,4.29-1.8,8.59-2.7,12.88h4.82c-.62-1.53.04-3.57.13-5.17.12-1.97.07-3.94-.09-5.9-.13-1.52-1.51-2.97-3.16-2.41-2.95.99-2.15,3.79-2.28,6.19s-.63,4.63-.37,6.96,1.05,5.23,3.39,6.3c1.19.54,2.48.45,3.76.44s2.56-.03,3.84-.04c3.22-.03,3.22-5.03,0-5-1.7.02-3.41.06-5.12.05-.92,0-.2.28-.11.27-.07.01-.36-.64-.39-.71-.27-.64-.38-1.37-.42-2.06-.08-1.59.14-3.17.3-4.75.09-.84.16-1.68.15-2.52,0-.42-.03-.84-.06-1.26-.02-.16-.03-.32-.04-.48-.06.2-.04.17.06-.1l-.64,1.1.15-.16-1.1.64.22-.07-3.16-2.41c.18,2.1.21,4.21.06,6.32s-.72,4.15.07,6.08c.42,1.04,1.22,1.84,2.41,1.84,1.05,0,2.19-.77,2.41-1.84.9-4.29,1.8-8.59,2.7-12.88l-4.57.6c.79,1.83.49,4.1.69,6.05.26,2.42.79,4.77,1.68,7.04.45,1.16,1.43,1.99,2.74,1.79,1.12-.17,2.3-1.2,2.17-2.46-.37-3.58-.45-7.24.58-10.73.44-1.48,1.1-2.7,2.22-3.78s2.47-2.39,3.73-3.27l-1.26.34.2-.02-1.77-.73.16.18-.73-1.77c.25,1.91.03,3.99.03,5.92,0,3.22,5,3.22,5,0h0Z"/>
  <path class="cls-1" d="m21.74,35.21c3.22,0,3.22-5,0-5s-3.22,5,0,5h0Z"/>
  <path class="cls-1" d="m22.4,34.76c3.22,0,3.22-5,0-5s-3.22,5,0,5h0Z"/>
  <path class="cls-1" d="m19.9,33.15c.01,1.23.01,2.46,0,3.69,0,.28,0,.55-.01.83,0,.1-.02.21-.01.32-.04-.6.1-.54.04-.33-.11.38.2-.37.28-.46.51-.64,1.55-1.02,2.33-.5.47.31.25.22.13.1-.1-.11-.21-.21-.31-.32l-.1-.11c-.17-.2-.13-.15.12.16-.01-.06-.14-.2-.17-.24-.14-.2-.26-.42-.38-.63-.05-.09-.09-.18-.13-.26-.03-.06-.26-.5-.05-.11s0-.04-.03-.12c-.05-.14-.1-.28-.14-.43-.13-.43-.21-.87-.3-1.31-.1-.53.06.59.01.09-.03-.26-.07-.55-.11-.8s-.07-.48-.15-.72c-.3-.87-.8-1.68-1.61-2.16-.89-.52-1.88-.62-2.88-.42-1.18.24-2.33.93-3.42,1.43-.74.34-1.45.76-1.88,1.49-.51.88-.54,1.85-.36,2.82.27,1.44,1.27,2.6,2.42,3.45.46.34.95.6,1.47.84.39.17.78.33,1.17.49.12.05.24.1.36.14.09.04.59.24.16.06s0,0,.06.04c.12.06.24.12.36.18.1.05.19.11.29.17.08.05.48.35.12.07s-.02,0,.04.06c.05.04.09.09.13.14.13.14.06.06-.2-.26.02.05.09.16.13.21.11.23.08.14-.11-.26.03.08.05.16.06.25.28,1.28,1.84,2.15,3.08,1.75,1.34-.44,2.05-1.71,1.75-3.08s-1.28-2.41-2.42-3.15c-.34-.22-.7-.39-1.06-.55s-.7-.3-1.06-.44c-.12-.05-.24-.1-.36-.14-.16-.06-.58-.32.02.01-.41-.22-.83-.42-1.23-.66-.45-.27.34.31.1.08-.08-.08-.18-.16-.26-.24-.03-.03-.14-.18-.19-.21.24.32.29.38.14.17l-.07-.12-.07-.12c-.11-.24-.09-.16.09.22,0-.04-.07-.25-.08-.27-.11-.39.03.22.03.25v-.13c0,.45-.18.84-.51,1.17-.06.06-.49.29-.15.15.1-.04.19-.09.29-.13.32-.15.63-.29.95-.44.21-.1.42-.19.63-.29.16-.07.32-.14.48-.22.21-.1.23.02-.18.08.07-.01.22-.07.29-.1l.15-.04c-.42.04-.5.05-.23.03-.28-.06-.46-.05-.72-.22-.29-.26-.37-.32-.24-.19.13.14.07.05-.2-.26-.31-.53-.15-.41-.08-.18.03.11.05.22.07.33.04.16.05.49-.03-.27,0,.09.02.19.03.28.09.69.18,1.38.37,2.06.29,1.07.74,2.17,1.39,3.08,1.01,1.44,2.45,2.91,4.39,2.46,1.14-.26,1.95-1.1,2.32-2.19.22-.64.22-1.33.23-1.99.02-1.35.02-2.7,0-4.06s-1.14-2.56-2.5-2.5-2.51,1.1-2.5,2.5h0Z"/>
  <path class="cls-1" d="m18.41,39.32c-.27.05-.2.04.21-.02-.1,0-.2,0-.3,0-.1,0-.2-.01-.3-.02.41.06.48.06.21.02-.4-.1-.82-.19-1.22-.27-.57-.11-1.16-.22-1.74-.2-.21,0-.41.03-.62.05-.11.01-.53-.03-.61.03.25,0,.48.06.69.2-.22-.13-.17-.08.15.15-.28-.22-.54-.47-.84-.65s-.64-.34-.98-.43c-.09-.02-.18-.04-.27-.06-.25-.07-.19-.03.2.11.3.25.35.28.16.1-.07-.07-.14-.15-.2-.23-.17-.2-.14-.16.1.14-.06-.08-.12-.17-.18-.25-.24-.34-.43-.7-.62-1.07-.11-.24-.09-.19.06.17-.04-.1-.08-.19-.11-.29-.03-.08-.05-.15-.07-.23-.05-.26-.05-.16.03.3,0-.08,0-.16,0-.24,0,.3-.06.58-.21.84-.51.77-1.19,1.06-2.02.87.1.02.2.05.29.09-.37-.16-.42-.18-.15-.05l.33.16c.22.11.44.21.67.32.44.21.89.42,1.33.63,1.78.84,3.55,1.69,5.33,2.53.62.29,1.25.44,1.93.25.58-.16,1.21-.61,1.49-1.15.59-1.11.36-2.82-.9-3.42-1.72-.82-3.44-1.63-5.16-2.45-.83-.4-1.66-.79-2.5-1.19-.6-.28-1.15-.52-1.81-.61-.98-.13-1.93.19-2.65.87-1.82,1.7-.74,4.57.47,6.27.74,1.05,1.57,2.04,2.88,2.36.06.02.14.04.21.04.3.03-.46-.26-.21-.1.22.15-.24-.2-.22-.18.07.06.15.12.22.18.75.59,1.47.92,2.44,1.01.44.04.87-.04,1.3-.06.1,0,.21,0,.31,0,.46.02,0,.06-.12-.03.13.09.45.09.61.12,1.28.29,2.46.5,3.76.24s2.14-1.85,1.75-3.08c-.44-1.36-1.7-2.03-3.08-1.75h0Z"/>
  <path class="cls-1" d="m20.52,44.05c.58-.05,1.15-.02,1.73,0,.35.01-.46-.09-.12-.02.15.03.3.05.45.08.3.06.59.14.88.23,1.42.44,3.34-.8,3.16-2.41-.1-.9-.2-1.8-.3-2.7-.09-.8-.21-1.61-.21-2.42s.15-1.63.11-2.45c-.05-.98-.22-1.97-.55-2.9-.44-1.23-1.72-2.18-3.08-1.75-1.21.39-2.22,1.76-1.75,3.08.14.39.23.78.34,1.19.13.5-.03-.52.01.03.01.18.03.35.03.53.02.82-.13,1.63-.11,2.46.04,1.64.33,3.31.51,4.94l3.16-2.41c-1.37-.42-2.85-.6-4.27-.48-1.3.11-2.56,1.07-2.5,2.5.06,1.26,1.1,2.62,2.5,2.5h0Z"/>
  <path class="cls-1" d="m36.57,43.68c.65-.39,1.17-.95,1.54-1.61.21-.37.36-.75.62-1.09l-.39.51c.13-.16.27-.3.43-.43l-.51.39c.2-.15.4-.27.63-.36l-.6.25c.19-.07.38-.13.58-.16l-.66.09c.19-.03.39-.04.58-.02l-.66-.09c.1.02.19.04.29.08l-.6-.25c.06.03.11.06.16.1l-.51-.39.06.07-.39-.51.04.08-.25-.6.02.09-.09-.66v.11c.03-.22.06-.44.09-.66l-.03.1.25-.6-.05.1.39-.51c-.32.4-.78.72-1.17,1.06-.43.37-.85.74-1.28,1.11-.75.65-.88,1.87-.52,2.73s1.29,1.57,2.28,1.54c1.76-.06,3.46-.38,5.04-1.17,1.37-.67,2.66-1.88,3.32-3.27.41-.87.71-1.77.72-2.75,0-.81-.27-1.63-.85-2.21-.64-.64-1.46-.81-2.32-.89s-1.71.06-2.49.36c-.45.18-.89.36-1.29.64-.29.2-.56.42-.89.57l.6-.25c-.13.05-.26.08-.4.1l.66-.09c-.46.04-.91-.05-1.36-.03-.75.03-1.51.19-2.14.6-.81.53-1.25,1.25-1.56,2.15-.17.5-.32,1-.48,1.49-.4,1.24.47,2.78,1.75,3.08,1.37.31,2.64-.41,3.08-1.75.19-.59.35-1.2.59-1.77l-.25.6c.03-.07.07-.14.12-.2l-.39.51c.04-.06.09-.11.15-.16l-.51.39c.09-.07.17-.12.27-.16l-.6.25c.14-.05.28-.09.43-.11l-.66.09c.34-.04.68,0,1.02.02.52.03,1.07-.02,1.57-.18.85-.27,1.45-.88,2.25-1.23l-.6.25c.29-.12.58-.2.89-.25l-.66.09c.36-.05.7-.05,1.06,0l-.66-.09c.12.02.22.04.34.08l-.6-.25.09.06-.9-.9.07.09-.25-.6.04.11-.09-.66c.02.2,0,.4-.02.6l.09-.66c-.05.32-.13.62-.25.92l.25-.6c-.16.37-.36.71-.6,1.04l.39-.51c-.28.35-.59.66-.94.94l.51-.39c-.42.32-.88.57-1.36.78l.6-.25c-.69.28-1.41.45-2.15.55l.66-.09c-.42.05-.83.08-1.25.1l1.77,4.27c.77-.67,1.63-1.3,2.33-2.04.84-.89,1.18-2.1.7-3.25-.38-.89-1.2-1.59-2.17-1.77-1.55-.3-3.03.21-4.23,1.19-.45.37-.83.86-1.1,1.37-.19.34-.34.7-.57,1.02l.39-.51c-.07.08-.14.15-.22.23l.51-.39c-.06.05-.12.08-.18.12-1.12.67-1.63,2.28-.9,3.42s2.22,1.62,3.42.9h0Z"/>
  <path class="cls-1" d="m38.18,39.99c.2-2.29.24-4.59.11-6.88l-2.5,2.5c2.18-.03,4.37-.05,6.55-.06l-.66-4.91c-1.01.4-2.01.8-3.02,1.19-.73.29-1.44.53-2.05,1.05-.81.7-1.19,1.89-.86,2.92s1.28,1.84,2.41,1.84c.95,0,1.9,0,2.85,0,.46,0,.92,0,1.37,0,.21,0,.42.01.63,0,.27.02.18,0-.26-.04-.25-.08-.47-.21-.67-.38.69.73,1.84.89,2.73.52s1.5-1.27,1.54-2.28c.04-1.17-.07-2.33-.24-3.49s-.39-2.68-1.3-3.55c-.85-.8-2.01-1.07-3.1-.61-.56.23-1.01.64-1.32,1.16-.09.14-.15.32-.21.47-.15.35-.17.4-.06.13.08-.19.09-.22.04-.1-.1.16-.2.33-.29.5-.13.26.33-.37.13-.16-.07.07-.12.14-.19.21s-.33.27-.01.03.05-.04-.03,0-.38.2-.01.02,0-.03-.1,0c-1.28.28-2.15,1.84-1.75,3.08.44,1.35,1.7,2.04,3.08,1.75.92-.2,1.82-.75,2.46-1.44.32-.35.62-.73.86-1.14.07-.12.14-.25.2-.38.11-.24.21-.48.31-.73-.07.25-.2.47-.38.67l-1.1.64.11-.03h-1.33c-.66-.22-1.08-.62-1.26-1.21.03.12.07.24.1.36.05.18.09.37.13.55s.08.37.11.56c.01.07.12.81.07.41s.03.35.04.42c.02.19.03.38.04.57.02.44.02.88,0,1.32l4.27-1.77c-1.07-1.13-2.6-1.04-4.02-1.04-1.15,0-2.29,0-3.44,0l2.41,1.84-.03-.11v1.33c-.05.39-.61,1.08-1.08,1.17.17-.03.37-.15.53-.21l.98-.39c.68-.27,1.36-.54,2.04-.81,1.17-.46,1.97-1.42,1.79-2.74-.16-1.21-1.2-2.18-2.46-2.17-2.18.02-4.37.04-6.55.06-1.3.02-2.57,1.13-2.5,2.5.12,2.29.09,4.59-.11,6.88-.11,1.31,1.23,2.56,2.5,2.5,1.45-.07,2.38-1.1,2.5-2.5h0Z"/>
  <path class="cls-1" d="m44.65,29.06c.12-1.38,0-2.76-.02-4.14-.01-.65.03-1.29.05-1.94.01-.31-.09.45,0-.03.03-.16.06-.33.1-.49.09-.36.2-.71.34-1.06l-4.57.6c.05.08.1.16.14.25.08.17.06.11-.07-.17.03,0,.13.54.14.54-.05,0-.05-.58,0,0,.01.16.02.32.02.48.01.83-.03,1.66-.06,2.49-.07,1.73-.16,3.45-.25,5.18-.05.87.51,1.73,1.24,2.16.8.47,1.72.41,2.52,0,1.37-.7,1.86-2.27,1.82-3.71-.04-1.15-.12-2.3-.18-3.44s-.16-2.27-.14-3.41c0-.3.02-.6.05-.89-.06.59.08-.31.1-.42.18-.91.23-1.67.05-2.58-.24-1.24-1.88-2.2-3.08-1.75-2.1.79-3.54,2.58-3.57,4.88-.02,1.31,1.17,2.56,2.5,2.5s2.48-1.1,2.5-2.5c.01-.28,0-.22-.05.18.02-.11.05-.21.08-.31-.16.34-.18.4-.06.15.04-.07.08-.14.13-.21.1-.15.06-.09-.15.19.07-.08.15-.16.23-.23-.3.22-.34.26-.12.11.24-.12.19-.11-.16.05l-3.08-1.75c-.03-.32-.04-.33-.04-.04.04-.28.04-.32,0-.14-.07.24-.11.5-.15.75-.1.59-.17,1.18-.19,1.78-.04.98.04,1.96.09,2.94s.1,1.99.16,2.98c.02.43.06.87.07,1.3,0,.41-.03.27.05-.05-.07.26-.03.2.11-.18.13-.21.3-.38.5-.53l3.76,2.16c.1-1.88.2-3.76.27-5.64s.16-3.9-.85-5.64c-.5-.87-1.51-1.33-2.49-1.19-1.05.14-1.7.84-2.08,1.79-1.14,2.89-.4,5.99-.65,8.99-.11,1.31,1.23,2.56,2.5,2.5,1.45-.06,2.38-1.1,2.5-2.5h0Z"/>
  <path class="cls-1" d="m44.71,18.46v-1.5c0-.46-.03-.94.02-1.39l-.09.66c0-.05.02-.1.04-.15l-.25.6s.04-.09.07-.13l-.39.51s.04-.05.07-.07l-.51.39s.05-.03.08-.05l-.6.25s.06-.02.09-.02l-.66.09s.06,0,.09,0l-.66-.09s.09.02.14.04l-.6-.25s.09.05.13.08l-.51-.39s.07.07.11.11l-.39-.51s.06.09.08.15l-.25-.6c.04.09.06.19.07.29l-.09-.66c.06.5.03,1.03.03,1.53,0,.54.01,1.07.02,1.61,0,.65.27,1.31.73,1.77.43.43,1.15.76,1.77.73s1.32-.24,1.77-.73.74-1.09.73-1.77c0-.78-.02-1.56-.03-2.34,0-.55,0-1.11-.15-1.64-.3-1.03-1.09-1.92-2.15-2.2-1.23-.33-2.66.14-3.28,1.3-.3.55-.37.93-.43,1.55-.01.17,0,.33-.01.5v2.33c0,.64.27,1.32.72,1.77s1.15.76,1.77.73,1.32-.24,1.77-.73.73-1.09.73-1.77h0Z"/>
  <path class="cls-1" d="m45.6,15.51c1.03-3.34-1.34-7.45-4.54-8.6-1.48-.53-3.24-.49-4.79-.43-1.74.06-3.49.29-5.2.65-1.28.27-2.14,1.85-1.75,3.08.44,1.36,1.7,2.03,3.08,1.75.33-.07.66-.13.99-.19.15-.03.29-.05.44-.07.05,0,.52-.07.22-.03-.33.04.34-.04.33-.04.15-.02.3-.03.44-.04.3-.03.59-.05.89-.07.63-.04,1.26-.05,1.9-.04.32,0,.65.01.97.03.13,0,.26.02.39.03.49.03-.28-.08.01,0,.12.03.25.05.38.09.06.02.47.14.16.03s.08.07.13.08c.26.09-.3-.31.01,0,.05.05.53.51.51.54,0,0-.29-.41-.05-.07.09.13.17.25.26.38.13.21.24.43.36.65.14.26-.14-.45,0,0,.03.12.07.23.1.35.02.09.02.27.07.35-.08-.12-.02-.48-.04-.13,0,.04-.02.62,0,.2.03-.39-.06.12-.08.19-.39,1.25.46,2.78,1.75,3.08,1.36.31,2.66-.41,3.08-1.75h0Z"/>
  <path class="cls-1" d="m32,6.96c-4.52-.35-9.06-.3-13.58.14-1.3.13-2.56,1.06-2.5,2.5.06,1.25,1.11,2.63,2.5,2.5,4.52-.44,9.06-.48,13.58-.14,1.31.1,2.56-1.22,2.5-2.5-.06-1.44-1.1-2.39-2.5-2.5h0Z"/>
  <path class="cls-1" d="m19.69,6.62c-1.43,0-2.87.04-4.3.14-1.61.11-3.66-.03-4.62,1.53-.86,1.38-.39,3.24.7,4.35s2.5,1.46,3.92,1.74c2.7.53,5.45.63,8.19.38,1.41-.13,2.85-.29,4.19-.77,1.04-.38,2.2-1.05,3.15-1.09l-.66-4.91c-4.21,1.2-7.69,4.88-8.34,9.26-.2,1.33.33,2.69,1.75,3.08,1.18.32,2.87-.4,3.08-1.75.06-.38.13-.76.23-1.14.06-.21.13-.41.19-.61.03-.1.15-.36.04-.12.18-.39.39-.77.62-1.13.09-.14.19-.29.29-.43-.19.26.1-.12.17-.2.26-.29.53-.57.82-.82.13-.11.26-.23.39-.33-.25.19.14-.08.23-.14.8-.52,1.15-.65,1.86-.85,2.65-.76,2.22-5.01-.66-4.91-1.66.06-3.02.73-4.48,1.27-1.33.48-2.64.6-4.03.68-1.5.09-3.03.08-4.53-.1-.66-.08-1.32-.21-1.98-.37-.18-.04-.73-.27-.91-.25.05,0,.08.03.1.08.34.44.34.98,0,1.61l-.9.9c-.31.17-.86.18-.23.16.3,0,.6-.05.89-.08.54-.04,1.07-.08,1.61-.1,1.07-.05,2.15-.08,3.23-.08,1.35,0,2.5-1.15,2.5-2.5s-1.14-2.5-2.5-2.5h0Z"/>
  <path class="cls-1" d="m26.6,18.44c.04-.15.08-.29.13-.44-.12.33,0,.03.09-.13.02-.04.28-.41.13-.22s.15-.15.18-.18c.06-.06.44-.4.12-.13.12-.1.25-.19.38-.28.35-.27.72-.53,1.02-.86s.62-.72.79-1.13c.13-.31-.24.27-.02.03s-.35.21-.01,0c.63-.38,1.22-.78,1.88-1.1.04-.02.46-.22.25-.12s.22-.09.26-.1c.34-.13.68-.25,1.03-.35.31-.09.62-.17.94-.24.16-.04.32-.07.47-.1-.02,0,.67-.11.39-.07-.25.03.22-.02.27-.02.16-.01.32-.03.48-.04.36-.02.73-.03,1.09-.02.32,0,.64.03.97.06.75.06-.25-.06.18.02.2.04.4.07.6.11,1.28.25,2.76-.36,3.08-1.75.28-1.24-.37-2.81-1.75-3.08-3.69-.72-7.4-.25-10.78,1.39-.72.35-1.41.76-2.06,1.23-.47.34-.87.66-1.22,1.12-.15.19-.3.38-.41.6-.2.38.17-.08-.04.11-.06.05-.44.41-.11.14-.2.17-.42.32-.63.48-.37.28-.7.56-.99.92-.71.84-1.22,1.77-1.51,2.83-.35,1.26.43,2.78,1.75,3.08s2.7-.4,3.08-1.75h0Z"/>
  <path class="cls-1" d="m39.28,11.62c-.18,1.23-.13,2.26.07,3.48.03.18.06.36.09.54.02.12.04.24.06.36l-.04-.3c.08.08.02.59.01.7,0,.17-.02.34-.04.52-.16,1.64-.24,3.27-.2,4.92.04,1.31,1.12,2.56,2.5,2.5s2.54-1.1,2.5-2.5c-.04-1.59.02-3.17.18-4.74.1-.95.01-1.83-.15-2.78-.03-.18-.06-.36-.09-.54-.11-.61.03.56,0-.05-.01-.18-.03-.36-.03-.54,0-.16.08-.96-.03-.23.1-.69.11-1.3-.25-1.93-.3-.52-.9-1.01-1.49-1.15-1.19-.27-2.87.36-3.08,1.75h0Z"/>
  <path class="cls-1" d="m35.74,21.17c-.09-.39-.3-.75-.6-1.03l-.88,2.13c.9-.06,1.8-.09,2.71-.09.43,0,.85,0,1.28.02.22,0,.43.02.65.04.2.02-.27-.07.08.02.11.03.23.05.34.09.63.18,1.39-.22,1.54-.87.16-.69-.21-1.31-.87-1.54-1.23-.42-2.59-.59-3.89-.46-.86.09-1.53.41-2.19.95-.55.44-1.18,1.09-1.2,1.83s.57,1.31,1.29,1.36c.33.02.66-.03.99-.05.66-.04,1.33-.09,1.99-.13s1.37-.09,2.05-.13,1.46.02,2.05-.35c.55-.34.82-1.06.6-1.68-.15-.41-.42-.76-.76-1.04-.63-.51-1.4-.82-2.22-.77-.65.04-1.28.55-1.25,1.25.03.64.55,1.29,1.25,1.25.06,0,.13,0,.19,0,.28-.01-.14-.05,0,0,.06.02.12.03.18.05.03,0,.06.02.09.03.09.03.06.02-.08-.03.05-.05.37.32.14.07.05.06.11.12.17.17.05.05.04.05,0-.02-.16-.19-.2-.43-.11-.73l.32-.55c.1-.08.21-.14.32-.18.21-.02.25-.03.12-.02-.13,0-.26.02-.38.03-.28.02-.56.04-.83.05-.53.03-1.07.07-1.6.1s-1.07.07-1.6.1c-.26.02-.51.03-.77.05-.28.02-.59.07-.86.04l.88.37-.04-.04.37.88c0,.21-.05.38-.18.53l.07-.08c.08-.09.17-.19.26-.28.08-.08.16-.14.24-.22.07-.06.05-.05-.04.03.04-.03.09-.06.13-.09.11-.07.22-.14.33-.2-.2.1.06,0,.13-.02.25-.07-.15,0,.13-.02.12,0,.24-.02.35-.02.24,0,.47,0,.71,0,.12,0,.24.01.35.02.06,0,.36.04.14.01.51.07,1.01.2,1.49.36l.66-2.41c-.92-.27-1.93-.26-2.88-.26s-1.89.03-2.84.09c-.51.03-.94.29-1.14.77-.19.44-.11,1.03.26,1.37.1.1.09.08-.01-.04-.06-.16-.07-.17-.03-.04.15.64.91,1.08,1.54.87.66-.21,1.04-.86.87-1.54h0Z"/>
  <path class="cls-1" d="m35.15,21.98c1.61,0,1.61-2.5,0-2.5s-1.61,2.5,0,2.5h0Z"/>
  <path class="cls-1" d="m34.9,23.83c1.61,0,1.61-2.5,0-2.5s-1.61,2.5,0,2.5h0Z"/>
  <path class="cls-1" d="m36.27,23.68c.06-.05.13-.08.19-.13.2-.14-.27.11.02,0,.1-.02.05-.02-.14.01.04,0,.08,0,.12,0,.31,0-.23-.06,0,0l-.55-2.09-.09.1c-.36.4-.5,1.04-.2,1.51s.84.68,1.41.57c.32-.06-.27.01.06-.01.07,0,.13-.01.2-.01.18-.01.36-.01.54-.01.35,0,.7,0,1.06,0,.16,0,.32,0,.48,0,.08,0,.15,0,.23,0,.15,0-.24-.07-.02,0,.07.02.35.12.03,0,.14.06.27.12.42.18.22.08.46.12.69.11.65-.03,1.28-.55,1.25-1.25-.03-.65-.55-1.28-1.25-1.25-.27.01.27.07.01,0l.14.06c-.08-.03-.15-.07-.23-.1-.19-.08-.37-.14-.58-.18-.43-.07-.85-.07-1.28-.07-.81,0-1.62-.02-2.42.13l1.22,2.09.09-.1c.61-.68.4-1.85-.55-2.09-.71-.18-1.53-.09-2.12.36-.27.21-.48.41-.57.75-.08.3-.05.7.13.96.33.51,1.15.87,1.71.45h0Z"/>
  <path class="cls-1" d="m39.46,23.21l.35-.46,1.71.45.12.38-1.88,1.08c-.23-.14-.35-.33-.39-.56-.02-.12-.02-.1-.02.06-.01.11-.01.22-.02.33-.02.23.06-.27-.02.12-.03.13-.05.26-.09.39l2.46.33c0-.31,0-.63,0-.94h-2.5c.1,1.16.17,2.33.19,3.49,0,.25,0,.5,0,.74,0,.12,0,.24-.01.35,0,.04-.03.38-.02.24s-.04.2-.05.24c-.02.11-.05.22-.09.33-.02.05-.04.11-.06.16.05-.1.05-.12.01-.04-.07.11-.13.23-.21.35l2.28.96c.17-.62.34-1.24.51-1.86s-.16-1.24-.72-1.47c-.6-.25-1.2,0-1.56.51-.06.09-.12.18-.18.26l2.33.63c.15-1.14.15-2.29,0-3.43-.08-.65-.51-1.28-1.25-1.25s-1.19.55-1.25,1.25c-.09,1.1.08,2.2.23,3.29.09.65.95,1.06,1.54.87.71-.23.97-.84.87-1.54-.06-.43-.1-.71-.14-1.22-.04-.47-.04-.94,0-1.41h-2.5c.15,1.14.15,2.29,0,3.43-.07.52.43,1.1.92,1.21.57.13,1.09-.1,1.41-.57.06-.09.12-.18.18-.26l-2.28-.96c-.17.62-.34,1.24-.51,1.86s.16,1.24.72,1.47,1.21.01,1.56-.51c.67-.99.77-2.22.76-3.38-.01-1.26-.08-2.51-.19-3.76-.06-.65-.53-1.28-1.25-1.25-.68.03-1.25.55-1.25,1.25,0,.31,0,.63,0,.94,0,.62.47,1.15,1.08,1.23s1.22-.29,1.37-.9c.25-.97.54-2.64-.62-3.16-.92-.42-1.76.09-1.88,1.08-.04.31.07.61.22.88.31.58,1.16.8,1.71.45.41-.26.66-.58.8-1.04.19-.62-.23-1.39-.87-1.54-.68-.15-1.33.2-1.54.87h0Z"/>
  <path class="cls-1" d="m40.17,21.76c1.61,0,1.61-2.5,0-2.5s-1.61,2.5,0,2.5h0Z"/>
  <path class="cls-1" d="m41.7,20c.16-1.43.23-2.86.23-4.3,0-.65-.57-1.28-1.25-1.25s-1.25.55-1.25,1.25c0,1.44-.07,2.87-.23,4.3-.03.3.16.68.37.88.22.22.57.38.88.37s.66-.12.88-.37c.24-.26.33-.54.37-.88h0Z"/>
  <path class="cls-1" d="m44.3,14.31l-.85.52c-.15.08-.26.19-.35.32-.11.12-.19.26-.22.43-.05.17-.06.33-.02.5,0,.17.06.32.15.46l.2.25c.16.15.34.26.55.32l.33.04c.23,0,.44-.06.63-.17l.85-.52c.15-.08.26-.19.35-.32.11-.12.19-.26.22-.43.05-.17.06-.33.02-.5,0-.17-.06-.32-.15-.46l-.2-.25c-.16-.15-.34-.26-.55-.32l-.33-.04c-.23,0-.44.06-.63.17h0Z"/>
  <path class="cls-1" d="m31.67,9.17c1.61,0,1.61-2.5,0-2.5s-1.61,2.5,0,2.5h0Z"/>
  <path class="cls-1" d="m40.41,20.26c1.61,0,1.61-2.5,0-2.5s-1.61,2.5,0,2.5h0Z"/>
  <path class="cls-1" d="m41.67,19.01c-.08-.97.05-1.93.16-2.9s.21-1.92.31-2.88c.07-.62-.53-1.15-1.08-1.23s-1.25.28-1.37.9c-.1.53-.21,1.06-.31,1.59-.11.56-.27,1.15-.22,1.73.06.65.53,1.28,1.25,1.25s1.24-.55,1.25-1.25c0-.38,0-.75.01-1.13,0-.16,0-.33,0-.49,0-.2,0-.07-.02.05l.02-.08c-.06.19-.18.33-.36.44.27-.2.48-.41.57-.75.08-.3.05-.7-.13-.96-.33-.52-1.15-.87-1.71-.45-.36.27-.62.55-.76.98-.08.26-.11.54-.11.81-.01.53,0,1.05-.01,1.58h2.5c-.01-.12,0-.24,0-.37,0-.09,0-.07-.01.07,0-.05.02-.1.03-.16.04-.24.09-.48.14-.72.1-.49.19-.98.29-1.47l-2.46-.33c-.1.96-.21,1.92-.31,2.88s-.24,1.93-.16,2.9c.06.65.54,1.28,1.25,1.25.63-.03,1.31-.55,1.25-1.25h0Z"/>
  <path class="cls-1" d="m39.54,10.77c-2.98-.36-6.04-.08-8.92.78-.65.19-1.05.88-.87,1.54s.89,1.07,1.54.87c2.69-.81,5.44-1.03,8.25-.69.67.08,1.25-.63,1.25-1.25,0-.74-.58-1.17-1.25-1.25h0Z"/>
  <path class="cls-1" d="m25.65,15.97c-.05.12-.03.09.05-.11-.02.04-.04.08-.07.12-.05.08-.1.16-.15.24-.09.13-.2.26-.29.4-.31.44-.46.9-.51,1.43-.04.38.21.76.49.98.32.24.7.32,1.09.22l.18-.05-1.41-1.84c-.57,1.18-.86,2.5-.69,3.82.04.33.11.65.37.88.21.19.44.31.72.34.65.09,1.15-.3,1.37-.9.1-.28.11-.58.11-.88,0-.05,0-.11,0-.16,0-.14,0-.11-.01.09,0,0,.12-.39.05-.16-.09.28.13-.29.16-.38.06-.18.09-.36.1-.55.03-.38-.06-.72-.24-1.05-.3-.58-1.16-.8-1.71-.45-.59.38-.77,1.09-.45,1.71-.06-.11-.09-.23-.1-.36v.07c.01-.34,0-.15-.02-.04-.05.13-.04.1.03-.07l-.13.3c-.04.09-.07.18-.1.27-.07.23-.09.49-.09.73,0,.08,0,.16,0,.24,0,.1,0,.05.03-.14,0,.05-.03.1-.05.15l2.46.33c-.03-.26-.05-.51-.05-.77,0-.13,0-.26.02-.39,0-.06.01-.11.02-.17.01-.17-.06.32,0,.03.04-.24.09-.48.17-.71.04-.12.08-.25.13-.37.08-.22-.08.16-.01.02.03-.06.06-.13.09-.2.22-.46.23-.97-.1-1.39-.31-.4-.82-.58-1.31-.45l-.18.05,1.58,1.21c-.05.43.02.09.03,0-.08.18-.1.23-.06.15.02-.03.03-.06.05-.09.08-.14.18-.27.27-.4.25-.34.44-.67.59-1.07.23-.61-.25-1.4-.87-1.54-.71-.16-1.3.21-1.54.87h0Z"/>
  <path class="cls-1" d="m25.65,23.22c1.61,0,1.61-2.5,0-2.5s-1.61,2.5,0,2.5h0Z"/>
  <path class="cls-1" d="m25.65,23.88c1.61,0,1.61-2.5,0-2.5s-1.61,2.5,0,2.5h0Z"/>
  <path class="cls-1" d="m24.69,23.69c1.61,0,1.61-2.5,0-2.5s-1.61,2.5,0,2.5h0Z"/>
  <path class="cls-1" d="m23.74,21.2l-1.2-.09c-.29-.02-.53-.01-.83.04-.26.04-.5.18-.74.28l.3-.13c-.07.03-.14.05-.22.06l.33-.04s-.07,0-.11,0l.33.04s-.05-.01-.07-.02c-.29-.11-.7-.03-.96.13s-.51.45-.57.75c-.07.32-.06.68.13.96s.43.46.75.57c.14.05.31.07.46.07s.33-.02.48-.06c.21-.06.41-.16.61-.25l-.3.13c.09-.04.18-.07.28-.08l-.33.04c.27-.02.55.02.82.04l.86.06c.31.02.67-.16.88-.37s.38-.57.37-.88-.12-.66-.37-.88-.54-.34-.88-.37h0Z"/>
  <path class="cls-1" d="m24.5,32.2s.02,0,.03,0l-.33.04s.04,0,.06,0l-.33-.04s.05.01.08.02l-.3-.13s.08.04.12.07l-.25-.2s.09.08.14.12c.1.08.2.17.31.24.01,0,.03.02.04.02,0,0,.01,0,.02,0,.1.05.21.09.32.13.17.05.33.06.5.02.17,0,.32-.06.46-.15.15-.08.26-.19.35-.32.11-.12.19-.26.22-.43l.04-.33c0-.23-.06-.44-.17-.63l-.2-.25c-.16-.15-.34-.26-.55-.32h0c.1.04.2.08.3.12-.04-.02-.08-.04-.11-.07l.25.2c-.16-.12-.3-.26-.46-.36-.02-.01-.04-.02-.06-.03-.04-.02-.24-.12-.35-.14-.29-.07-.5-.07-.78,0-.16.04-.3.11-.43.22-.14.09-.24.21-.32.35-.09.14-.14.3-.15.46-.04.17-.03.33.02.5l.13.3c.11.19.26.34.45.45l.3.13c.22.06.44.06.66,0h0Z"/>
  <path class="cls-1" d="m25.34,32.36c1.61,0,1.61-2.5,0-2.5s-1.61,2.5,0,2.5h0Z"/>
  <path class="cls-1" d="m25.75,32.24c1.61,0,1.61-2.5,0-2.5s-1.61,2.5,0,2.5h0Z"/>
  <path class="cls-1" d="m24.43,31.28c.05.58.03,1.16-.04,1.73l.04-.33c-.05.38-.13.75-.23,1.11-.09.31-.04.68.13.96.15.26.45.51.75.57.66.15,1.35-.2,1.54-.87.29-1.02.41-2.12.32-3.18-.03-.34-.12-.64-.37-.88-.22-.22-.57-.38-.88-.37s-.66.12-.88.37-.39.56-.37.88h0Z"/>
  <path class="cls-1" d="m24.41,34.95c-.04.53-.1,1.06-.17,1.59l.04-.33c-.09.66-.2,1.33-.34,1.98-.07.33-.05.66.13.96.15.26.45.51.75.57.62.14,1.4-.19,1.54-.87.26-1.29.45-2.59.55-3.9.02-.3-.16-.67-.37-.88s-.57-.38-.88-.37c-.72.03-1.2.55-1.25,1.25h0Z"/>
  <path class="cls-1" d="m24.39,37.73c-.04.75-.1,1.5-.2,2.25l.04-.33c-.08.55-.17,1.09-.28,1.63-.07.33-.05.66.13.96.15.26.45.51.75.57.62.14,1.4-.19,1.54-.87.28-1.39.46-2.8.53-4.21.03-.65-.6-1.28-1.25-1.25-.7.03-1.22.55-1.25,1.25h0Z"/>
  <path class="cls-1" d="m24.32,40.45c.02.91,0,1.81-.05,2.72-.02.31.15.67.37.88s.57.38.88.37c.71-.03,1.21-.55,1.25-1.25.05-.91.06-1.81.05-2.72,0-.32-.14-.65-.37-.88-.22-.22-.57-.38-.88-.37-.67.03-1.26.55-1.25,1.25h0Z"/>
  <path class="cls-1" d="m35.11,43.01c-.07-.7.1-1.38.14-2.08.02-.31-.15-.67-.37-.88s-.57-.38-.88-.37-.66.12-.88.37-.35.54-.37.88c-.04.69-.21,1.38-.14,2.08,0,.17.03.33.11.48.05.15.14.29.26.4.22.22.57.38.88.37s.66-.12.88-.37c.21-.23.4-.56.37-.88h0Z"/>
  <path class="cls-1" d="m35.19,40.84c-.05-.89-.02-1.78.08-2.66.04-.3-.17-.68-.37-.88-.22-.22-.57-.38-.88-.37s-.66.12-.88.37l-.2.25c-.11.19-.17.41-.17.63-.11.88-.13,1.77-.08,2.66.02.33.13.64.37.88.22.22.57.38.88.37s.66-.12.88-.37.39-.55.37-.88h0Z"/>
  <path class="cls-1" d="m35.23,37.45c-.03-1.22-.02-2.44,0-3.65.02-.65-.59-1.28-1.25-1.25s-1.23.55-1.25,1.25c-.03,1.22-.04,2.44,0,3.65.01.65.56,1.28,1.25,1.25s1.27-.55,1.25-1.25h0Z"/>
  <path class="cls-1" d="m35.16,32.9v-1.05c0-.17,0-.34,0-.51s0-.33-.05-.49c-.1-.34-.33-.63-.64-.81l.25.2-.03-.02.2.25v-.02c.03.1.07.2.11.3v-.03c0,.11.02.22.04.33-.02-.39-.1-.73-.4-1.03-.4-.39-1.1-.53-1.58-.2l1.71.45-.02-.02.17.63v-.03c-.06.21-.12.42-.17.63v-.03c-.46.19-.93.38-1.4.57.87.35,1.84.51,2.77.49.33,0,.65-.13.88-.37.22-.22.38-.57.37-.88s-.12-.66-.37-.88-.55-.37-.88-.37-.64,0-.95-.05l.33.04c-.51-.07-1.01-.2-1.49-.39l-.33-.04c-.17,0-.33.03-.48.11-.23.1-.48.28-.6.51s-.18.4-.18.67c0,.21.06.49.19.67.08.15.19.26.32.35.12.11.26.19.43.22.31.07.69.06.96-.13h.02c-.21.04-.42.1-.63.16h.02c-.21-.05-.42-.11-.63-.17l.02.02-.25-.2.02.02-.32-.55v.03c0-.11-.02-.22-.03-.33.01.21.04.41.12.6.12.28.31.5.58.66l-.25-.2.02.02-.2-.25v.03c-.03-.1-.07-.2-.11-.3v.03c0-.11-.02-.22-.04-.33.02.56,0,1.13,0,1.69,0,.32.14.66.37.88s.57.38.88.37.66-.12.88-.37.37-.55.37-.88h0Z"/>
  <path class="cls-1" d="m35.23,32.32l3.96.13c.65.02,1.28-.59,1.25-1.25-.03-.7-.55-1.23-1.25-1.25l-3.96-.13c-.65-.02-1.28.59-1.25,1.25.03.7.55,1.23,1.25,1.25h0Z"/>
</svg>